<?xml version="1.0" encoding="UTF-8"?><!DOCTYPE score-partwise PUBLIC "-//Recordare//DTD MusicXML 2.0 Partwise//EN"                                "http://www.musicxml.org/dtds/partwise.dtd"><score-partwise version="2.0">  <movement-title></movement-title>  <identification>    <creator type="composer"></creator>    <encoding>      <software></software>      <software></software>      <encoding-date></encoding-date>      <supports attribute="new-system" element="print" type="yes" value="yes"/>      <supports attribute="new-page" element="print" type="yes" value="yes"/>    </encoding>  </identification>  <defaults>    <scaling>      <millimeters>7.1967</millimeters>      <tenths>40</tenths>    </scaling>    <page-layout>      <page-height>1553</page-height>      <page-width>1200</page-width>      <page-margins type="both">        <left-margin>141</left-margin>        <right-margin>70</right-margin>        <top-margin>88</top-margin>        <bottom-margin>88</bottom-margin>      </page-margins>    </page-layout>    <system-layout>      <system-margins>        <left-margin>0</left-margin>        <right-margin>0</right-margin>      </system-margins>      <system-distance>121</system-distance>      <top-system-distance>70</top-system-distance>    </system-layout>    <staff-layout>      <staff-distance>80</staff-distance>    </staff-layout>    <appearance>      <line-width type="stem">0.7487</line-width>      <line-width type="beam">5</line-width>      <line-width type="staff">0.7487</line-width>      <line-width type="light barline">0.7487</line-width>      <line-width type="heavy barline">5</line-width>      <line-width type="leger">0.7487</line-width>      <line-width type="ending">1.4583</line-width>      <line-width type="wedge">1.4583</line-width>      <line-width type="enclosure">0.7487</line-width>      <line-width type="tuplet bracket">0.7487</line-width>      <note-size type="grace">60</note-size>      <note-size type="cue">60</note-size>    </appearance>    <music-font font-family="Maestro" font-size="20.4"/>    <word-font font-family="Times New Roman" font-size="10.2"/>  </defaults>  <credit page="1">    <credit-words default-x="635" default-y="1465" font-size="24" justify="center" valign="top">Ein Feste Burg</credit-words>  </credit>  <credit page="1">    <credit-words default-x="1129" default-y="1394" font-size="12" justify="right" valign="top">Lucas Osiander</credit-words>  </credit>  <credit page="1">    <credit-words default-x="635" default-y="1404" font-size="18" justify="center" valign="top">13b</credit-words>  </credit>  <credit page="1">    <credit-words default-x="125" default-y="1341" valign="top">HTD</credit-words>  </credit>  <credit page="2">    <credit-words default-x="141" default-y="1488" font-size="14" valign="top">2</credit-words>  </credit>  <credit page="2">    <credit-words default-x="635" default-y="1488" font-size="12" justify="center" valign="top">Ein Feste Burg</credit-words>  </credit>  <part-list>    <part-group number="1" type="start">      <group-name>ms_0</group-name>      <group-abbreviation>ms_0</group-abbreviation>      <group-symbol default-x="-6">bracket</group-symbol>      <group-barline>yes</group-barline>    </part-group>    <score-part id="P1">      <part-name print-object="no">MusicXML Part</part-name>      <score-instrument id="P1-I2">        <instrument-name>Acoustic Grand Piano</instrument-name>      </score-instrument>      <midi-instrument id="P1-I2">        <midi-channel>1</midi-channel>        <midi-program>1</midi-program>        <volume>80</volume>        <pan>0</pan>      </midi-instrument>    </score-part>    <score-part id="P2">      <part-name print-object="no">MusicXML Part</part-name>      <score-instrument id="P2-I3">        <instrument-name>Acoustic Grand Piano</instrument-name>      </score-instrument>      <midi-instrument id="P2-I3">        <midi-channel>1</midi-channel>        <midi-program>1</midi-program>        <volume>80</volume>        <pan>0</pan>      </midi-instrument>    </score-part>    <part-group number="1" type="stop"/>    <score-part id="P3">      <part-name>Tonality</part-name>      <part-abbreviation>Ton.</part-abbreviation>      <score-instrument id="P3-I4">        <instrument-name>Acoustic Grand Piano</instrument-name>      </score-instrument>      <midi-instrument id="P3-I4">        <midi-channel>1</midi-channel>        <midi-program>1</midi-program>        <volume>80</volume>        <pan>0</pan>      </midi-instrument>    </score-part>    <score-part id="P4">      <part-name>Grouping</part-name>      <part-abbreviation>Grp.</part-abbreviation>      <score-instrument id="P4-I5">        <instrument-name>Acoustic Grand Piano</instrument-name>      </score-instrument>      <midi-instrument id="P4-I5">        <midi-channel>1</midi-channel>        <midi-program>1</midi-program>        <volume>80</volume>        <pan>0</pan>      </midi-instrument>    </score-part>    <part-group number="1" type="start">      <group-name>ms_1</group-name>      <group-abbreviation>ms_1</group-abbreviation>      <group-symbol default-x="-6">bracket</group-symbol>      <group-barline>yes</group-barline>    </part-group>    <score-part id="P5">      <part-name print-object="no">MusicXML Part</part-name>      <score-instrument id="P5-I6">        <instrument-name>Acoustic Grand Piano</instrument-name>      </score-instrument>      <midi-instrument id="P5-I6">        <midi-channel>1</midi-channel>        <midi-program>1</midi-program>        <volume>80</volume>        <pan>0</pan>      </midi-instrument>    </score-part>    <score-part id="P6">      <part-name print-object="no">MusicXML Part</part-name>      <score-instrument id="P6-I7">        <instrument-name>Acoustic Grand Piano</instrument-name>      </score-instrument>      <midi-instrument id="P6-I7">        <midi-channel>1</midi-channel>        <midi-program>1</midi-program>        <volume>80</volume>        <pan>0</pan>      </midi-instrument>    </score-part>    <part-group number="1" type="stop"/>  </part-list>  <!--=========================================================-->  <part id="P1">    <measure implicit="yes" number="0" width="159">      <print>        <system-layout>          <system-margins>            <left-margin>70</left-margin>            <right-margin>0</right-margin>          </system-margins>          <top-system-distance>211</top-system-distance>        </system-layout>        <measure-numbering>system</measure-numbering>      </print>      <attributes>        <divisions>2</divisions>        <key>          <fifths>0</fifths>          <mode>major</mode>        </key>        <time symbol="common">          <beats>4</beats>          <beat-type>4</beat-type>        </time>        <clef>          <sign>G</sign>          <line>2</line>        </clef>      </attributes>      <sound tempo="120"/>      <note default-x="88">        <pitch>          <step>C</step>          <octave>5</octave>        </pitch>        <duration>4</duration>        <voice>1</voice>        <type>half</type>        <stem default-y="14">up</stem>      </note>      <backup>        <duration>4</duration>      </backup>      <note default-x="88">        <pitch>          <step>E</step>          <octave>4</octave>        </pitch>        <duration>4</duration>        <voice>2</voice>        <type>half</type>        <stem default-y="-69">down</stem>      </note>    </measure>    <!--=======================================================-->    <measure number="1" width="235">      <note default-x="13">        <pitch>          <step>C</step>          <octave>5</octave>        </pitch>        <duration>8</duration>        <voice>1</voice>        <type>whole</type>      </note>      <note default-x="124">        <pitch>          <step>C</step>          <octave>5</octave>        </pitch>        <duration>8</duration>        <voice>1</voice>        <type>whole</type>      </note>      <backup>        <duration>16</duration>      </backup>      <note default-x="13">        <pitch>          <step>E</step>          <octave>4</octave>        </pitch>        <duration>8</duration>        <voice>2</voice>        <type>whole</type>      </note>      <note default-x="124">        <pitch>          <step>F</step>          <octave>4</octave>        </pitch>        <duration>8</duration>        <voice>2</voice>        <type>whole</type>      </note>    </measure>    <!--=======================================================-->    <measure number="2" width="264">      <note default-x="16">        <pitch>          <step>G</step>          <octave>4</octave>        </pitch>        <duration>8</duration>        <voice>1</voice>        <type>whole</type>      </note>      <note default-x="127">        <pitch>          <step>A</step>          <octave>4</octave>        </pitch>        <duration>4</duration>        <voice>1</voice>        <type>half</type>        <stem default-y="10.5">up</stem>      </note>      <note default-x="195">        <pitch>          <step>C</step>          <octave>5</octave>        </pitch>        <duration>4</duration>        <tie type="start"/>        <voice>1</voice>        <type>half</type>        <stem default-y="14">up</stem>        <notations>          <tied orientation="over" type="start"/>        </notations>      </note>      <backup>        <duration>16</duration>      </backup>      <note default-x="16">        <pitch>          <step>E</step>          <octave>4</octave>        </pitch>        <duration>8</duration>        <voice>2</voice>        <type>whole</type>      </note>      <note default-x="127">        <pitch>          <step>E</step>          <octave>4</octave>        </pitch>        <duration>4</duration>        <voice>2</voice>        <type>half</type>        <stem default-y="-69">down</stem>      </note>      <note default-x="195">        <pitch>          <step>F</step>          <octave>4</octave>        </pitch>        <duration>4</duration>        <tie type="start"/>        <voice>2</voice>        <type>half</type>        <stem default-y="-63.5">down</stem>        <notations>          <tied orientation="under" type="start"/>        </notations>      </note>    </measure>    <!--=======================================================-->    <measure number="3" width="261">      <note default-x="14">        <pitch>          <step>C</step>          <octave>5</octave>        </pitch>        <duration>4</duration>        <tie type="stop"/>        <voice>1</voice>        <type>half</type>        <stem default-y="14">up</stem>        <notations>          <tied type="stop"/>        </notations>      </note>      <note default-x="82">        <pitch>          <step>B</step>          <octave>4</octave>        </pitch>        <duration>4</duration>        <voice>1</voice>        <type>half</type>        <stem default-y="15.5">up</stem>      </note>      <note default-x="150">        <pitch>          <step>A</step>          <octave>4</octave>        </pitch>        <duration>8</duration>        <voice>1</voice>        <type>whole</type>      </note>      <backup>        <duration>16</duration>      </backup>      <note default-x="14">        <pitch>          <step>F</step>          <octave>4</octave>        </pitch>        <duration>4</duration>        <tie type="stop"/>        <voice>2</voice>        <type>half</type>        <stem default-y="-63.5">down</stem>        <notations>          <tied type="stop"/>        </notations>      </note>      <note default-x="82">        <pitch>          <step>D</step>          <octave>4</octave>        </pitch>        <duration>4</duration>        <voice>2</voice>        <type>half</type>        <stem default-y="-74">down</stem>      </note>      <note default-x="150">        <pitch>          <step>D</step>          <octave>4</octave>        </pitch>        <duration>8</duration>        <voice>2</voice>        <type>whole</type>      </note>    </measure>    <!--=======================================================-->    <measure number="4" width="231">      <print new-page="yes"/>      <note default-x="54">        <pitch>          <step>G</step>          <octave>4</octave>        </pitch>        <duration>8</duration>        <voice>1</voice>        <type>whole</type>        <notations>          <fermata default-x="-7" default-y="-45" type="inverted"/>        </notations>      </note>      <note default-x="131">        <rest>          <display-step>B</display-step>          <display-octave>4</display-octave>        </rest>        <duration>4</duration>        <voice>1</voice>        <type>half</type>      </note>      <note default-x="182">        <pitch>          <step>C</step>          <octave>5</octave>        </pitch>        <duration>4</duration>        <voice>1</voice>        <type>half</type>        <stem default-y="14">up</stem>      </note>      <backup>        <duration>16</duration>      </backup>      <note default-x="54">        <pitch>          <step>D</step>          <octave>4</octave>        </pitch>        <duration>8</duration>        <voice>2</voice>        <type>whole</type>      </note>      <note default-x="131">        <rest>          <display-step>C</display-step>          <display-octave>4</display-octave>        </rest>        <duration>4</duration>        <voice>2</voice>        <type>half</type>      </note>      <note default-x="182">        <pitch>          <step>F</step>          <octave>4</octave>        </pitch>        <duration>4</duration>        <voice>2</voice>        <type>half</type>        <stem default-y="-63.5">down</stem>      </note>    </measure>    <!--=======================================================-->    <measure number="5" width="171">      <note default-x="13">        <pitch>          <step>B</step>          <octave>4</octave>        </pitch>        <duration>8</duration>        <voice>1</voice>        <type>whole</type>      </note>      <note default-x="92">        <pitch>          <step>A</step>          <octave>4</octave>        </pitch>        <duration>8</duration>        <voice>1</voice>        <type>whole</type>      </note>      <backup>        <duration>16</duration>      </backup>      <note default-x="13">        <pitch>          <step>D</step>          <octave>4</octave>        </pitch>        <duration>8</duration>        <voice>2</voice>        <type>whole</type>      </note>      <note default-x="92">        <pitch>          <step>D</step>          <octave>4</octave>        </pitch>        <duration>8</duration>        <voice>2</voice>        <type>whole</type>      </note>    </measure>    <!--=======================================================-->    <measure number="6" width="211">      <note default-x="17">        <pitch>          <step>G</step>          <octave>4</octave>        </pitch>        <duration>8</duration>        <voice>1</voice>        <type>whole</type>      </note>      <note default-x="114">        <pitch>          <step>A</step>          <octave>4</octave>        </pitch>        <duration>4</duration>        <voice>1</voice>        <type>half</type>        <stem default-y="10.5">up</stem>      </note>      <note default-x="162">        <pitch>          <step>F</step>          <octave>4</octave>        </pitch>        <duration>4</duration>        <tie type="start"/>        <voice>1</voice>        <type>half</type>        <stem default-y="1">up</stem>        <notations>          <tied orientation="over" type="start"/>        </notations>      </note>      <backup>        <duration>16</duration>      </backup>      <note default-x="17">        <pitch>          <step>B</step>          <octave>3</octave>        </pitch>        <duration>4</duration>        <voice>2</voice>        <type>half</type>        <stem default-y="-84">down</stem>      </note>      <note default-x="65">        <pitch>          <step>E</step>          <octave>4</octave>        </pitch>        <duration>4</duration>        <voice>2</voice>        <type>half</type>        <stem default-y="-68.5">down</stem>      </note>      <note default-x="114">        <pitch>          <step>F</step>          <octave>4</octave>        </pitch>        <duration>4</duration>        <voice>2</voice>        <type>half</type>        <stem default-y="-63.5">down</stem>      </note>      <note default-x="162">        <pitch>          <step>C</step>          <octave>4</octave>        </pitch>        <duration>4</duration>        <tie type="start"/>        <voice>2</voice>        <type>half</type>        <stem default-y="-79">down</stem>        <notations>          <tied orientation="under" type="start"/>        </notations>      </note>    </measure>    <!--=======================================================-->    <measure number="7" width="193">      <note default-x="17">        <pitch>          <step>F</step>          <octave>4</octave>        </pitch>        <duration>4</duration>        <tie type="stop"/>        <voice>1</voice>        <type>half</type>        <stem default-y="1">up</stem>        <notations>          <tied type="stop"/>        </notations>      </note>      <note default-x="65">        <pitch>          <step>E</step>          <octave>4</octave>        </pitch>        <duration>4</duration>        <voice>1</voice>        <type>half</type>        <stem default-y="-4">up</stem>      </note>      <note default-x="114">        <pitch>          <step>D</step>          <octave>4</octave>        </pitch>        <duration>8</duration>        <voice>1</voice>        <type>whole</type>      </note>      <backup>        <duration>16</duration>      </backup>      <note default-x="17">        <pitch>          <step>C</step>          <octave>4</octave>        </pitch>        <duration>4</duration>        <tie type="stop"/>        <voice>2</voice>        <type>half</type>        <stem default-y="-79">down</stem>        <notations>          <tied type="stop"/>        </notations>      </note>      <note default-x="65">        <pitch>          <step>C</step>          <octave>4</octave>        </pitch>        <duration>4</duration>        <voice>2</voice>        <type>half</type>        <stem default-y="-79">down</stem>      </note>      <note default-x="114">        <pitch>          <step>B</step>          <octave>3</octave>        </pitch>        <duration>8</duration>        <voice>2</voice>        <type>whole</type>      </note>    </measure>    <!--=======================================================-->    <measure number="8" width="183">      <note default-x="16">        <pitch>          <step>C</step>          <octave>4</octave>        </pitch>        <duration>8</duration>        <voice>1</voice>        <type>whole</type>        <notations>          <fermata default-x="-7" default-y="-65" type="inverted"/>        </notations>      </note>      <note default-x="93">        <rest>          <display-step>A</display-step>          <display-octave>5</display-octave>        </rest>        <duration>8</duration>        <voice>1</voice>        <type>whole</type>      </note>      <backup>        <duration>16</duration>      </backup>      <note default-x="16">        <pitch>          <step>G</step>          <octave>3</octave>        </pitch>        <duration>8</duration>        <voice>2</voice>        <type>whole</type>      </note>      <note default-x="93">        <rest>          <display-step>C</display-step>          <display-octave>4</display-octave>        </rest>        <duration>8</duration>        <voice>2</voice>        <type>whole</type>      </note>      <barline location="right">        <bar-style>light-heavy</bar-style>      </barline>    </measure>  </part>  <!--=========================================================-->  <part id="P2">    <measure implicit="yes" number="0" width="159">      <print>        <measure-numbering>none</measure-numbering>      </print>      <attributes>        <divisions>2</divisions>        <key>          <fifths>0</fifths>          <mode>major</mode>        </key>        <time symbol="common">          <beats>4</beats>          <beat-type>4</beat-type>        </time>        <clef>          <sign>F</sign>          <line>4</line>        </clef>      </attributes>      <sound tempo="120"/>      <note default-x="88">        <pitch>          <step>G</step>          <octave>3</octave>        </pitch>        <duration>4</duration>        <voice>1</voice>        <type>half</type>        <stem default-y="24">up</stem>      </note>      <backup>        <duration>4</duration>      </backup>      <note default-x="88">        <pitch>          <step>C</step>          <octave>3</octave>        </pitch>        <duration>4</duration>        <voice>2</voice>        <type>half</type>        <stem default-y="-54">down</stem>      </note>    </measure>    <!--=======================================================-->    <measure number="1" width="235">      <note default-x="13">        <pitch>          <step>A</step>          <octave>3</octave>        </pitch>        <duration>8</duration>        <voice>1</voice>        <type>whole</type>      </note>      <note default-x="124">        <pitch>          <step>A</step>          <octave>3</octave>        </pitch>        <duration>8</duration>        <voice>1</voice>        <type>whole</type>      </note>      <backup>        <duration>16</duration>      </backup>      <note default-x="13">        <pitch>          <step>A</step>          <octave>2</octave>        </pitch>        <duration>8</duration>        <voice>2</voice>        <type>whole</type>      </note>      <note default-x="124">        <pitch>          <step>F</step>          <octave>2</octave>        </pitch>        <duration>8</duration>        <voice>2</voice>        <type>whole</type>      </note>    </measure>    <!--=======================================================-->    <measure number="2" width="264">      <note default-x="16">        <pitch>          <step>C</step>          <octave>4</octave>        </pitch>        <duration>8</duration>        <voice>1</voice>        <type>whole</type>      </note>      <note default-x="127">        <pitch>          <step>C</step>          <octave>4</octave>        </pitch>        <duration>4</duration>        <voice>1</voice>        <type>half</type>        <stem default-y="39">up</stem>      </note>      <note default-x="195">        <pitch>          <step>A</step>          <octave>3</octave>        </pitch>        <duration>4</duration>        <tie type="start"/>        <voice>1</voice>        <type>half</type>        <stem default-y="29">up</stem>        <notations>          <tied orientation="over" type="start"/>        </notations>      </note>      <backup>        <duration>16</duration>      </backup>      <note default-x="16">        <pitch>          <step>C</step>          <octave>3</octave>        </pitch>        <duration>8</duration>        <voice>2</voice>        <type>whole</type>      </note>      <note default-x="127">        <pitch>          <step>A</step>          <octave>2</octave>        </pitch>        <duration>4</duration>        <voice>2</voice>        <type>half</type>        <stem default-y="-63.5">down</stem>      </note>      <note default-x="195">        <pitch>          <step>F</step>          <octave>2</octave>        </pitch>        <duration>4</duration>        <tie type="start"/>        <voice>2</voice>        <type>half</type>        <stem default-y="-74">down</stem>        <notations>          <tied orientation="under" type="start"/>        </notations>      </note>    </measure>    <!--=======================================================-->    <measure number="3" width="261">      <note default-x="14">        <pitch>          <step>A</step>          <octave>3</octave>        </pitch>        <duration>4</duration>        <tie type="stop"/>        <voice>1</voice>        <type>half</type>        <stem default-y="29">up</stem>        <notations>          <tied type="stop"/>        </notations>      </note>      <note default-x="82">        <pitch>          <step>G</step>          <octave>3</octave>        </pitch>        <duration>4</duration>        <voice>1</voice>        <type>half</type>        <stem default-y="24">up</stem>      </note>      <note default-x="150">        <pitch>          <step>F</step>          <alter>1</alter>          <octave>3</octave>        </pitch>        <duration>8</duration>        <voice>1</voice>        <type>whole</type>        <accidental>sharp</accidental>      </note>      <backup>        <duration>16</duration>      </backup>      <note default-x="14">        <pitch>          <step>F</step>          <octave>2</octave>        </pitch>        <duration>4</duration>        <tie type="stop"/>        <voice>2</voice>        <type>half</type>        <stem default-y="-74">down</stem>        <notations>          <tied type="stop"/>        </notations>      </note>      <note default-x="82">        <pitch>          <step>G</step>          <octave>2</octave>        </pitch>        <duration>4</duration>        <voice>2</voice>        <type>half</type>        <stem default-y="-68.5">down</stem>      </note>      <note default-x="150">        <pitch>          <step>D</step>          <octave>3</octave>        </pitch>        <duration>8</duration>        <voice>2</voice>        <type>whole</type>      </note>    </measure>    <!--=======================================================-->    <measure number="4" width="231">      <print new-page="yes"/>      <note default-x="54">        <pitch>          <step>B</step>          <octave>3</octave>        </pitch>        <duration>8</duration>        <voice>1</voice>        <type>whole</type>      </note>      <note default-x="131">        <rest>          <display-step>C</display-step>          <display-octave>4</display-octave>        </rest>        <duration>4</duration>        <voice>1</voice>        <type>half</type>      </note>      <note default-x="182">        <pitch>          <step>A</step>          <octave>3</octave>        </pitch>        <duration>4</duration>        <voice>1</voice>        <type>half</type>        <stem default-y="29">up</stem>      </note>      <backup>        <duration>16</duration>      </backup>      <note default-x="54">        <pitch>          <step>G</step>          <octave>2</octave>        </pitch>        <duration>8</duration>        <voice>2</voice>        <type>whole</type>      </note>      <note default-x="131">        <rest>          <display-step>E</display-step>          <display-octave>2</display-octave>        </rest>        <duration>4</duration>        <voice>2</voice>        <type>half</type>      </note>      <note default-x="182">        <pitch>          <step>F</step>          <octave>2</octave>        </pitch>        <duration>4</duration>        <voice>2</voice>        <type>half</type>        <stem default-y="-73.5">down</stem>      </note>    </measure>    <!--=======================================================-->    <measure number="5" width="171">      <note default-x="13">        <pitch>          <step>G</step>          <octave>3</octave>        </pitch>        <duration>8</duration>        <voice>1</voice>        <type>whole</type>      </note>      <note default-x="92">        <pitch>          <step>F</step>          <alter>1</alter>          <octave>3</octave>        </pitch>        <duration>8</duration>        <voice>1</voice>        <type>whole</type>        <accidental>sharp</accidental>      </note>      <backup>        <duration>16</duration>      </backup>      <note default-x="13">        <pitch>          <step>G</step>          <octave>2</octave>        </pitch>        <duration>8</duration>        <voice>2</voice>        <type>whole</type>      </note>      <note default-x="92">        <pitch>          <step>D</step>          <octave>3</octave>        </pitch>        <duration>8</duration>        <voice>2</voice>        <type>whole</type>      </note>    </measure>    <!--=======================================================-->    <measure number="6" width="211">      <note default-x="17">        <pitch>          <step>G</step>          <octave>3</octave>        </pitch>        <duration>4</duration>        <voice>1</voice>        <type>half</type>        <stem default-y="24">up</stem>      </note>      <note default-x="65">        <pitch>          <step>C</step>          <octave>4</octave>        </pitch>        <duration>8</duration>        <voice>1</voice>        <type>whole</type>      </note>      <note default-x="162">        <pitch>          <step>A</step>          <octave>3</octave>        </pitch>        <duration>4</duration>        <tie type="start"/>        <voice>1</voice>        <type>half</type>        <stem default-y="29">up</stem>        <notations>          <tied orientation="over" type="start"/>        </notations>      </note>      <backup>        <duration>16</duration>      </backup>      <note default-x="17">        <pitch>          <step>E</step>          <octave>3</octave>        </pitch>        <duration>4</duration>        <voice>2</voice>        <type>half</type>        <stem default-y="-50.5">down</stem>      </note>      <note default-x="65">        <pitch>          <step>C</step>          <octave>3</octave>        </pitch>        <duration>4</duration>        <voice>2</voice>        <type>half</type>        <stem default-y="-53.5">down</stem>      </note>      <note default-x="114">        <pitch>          <step>F</step>          <octave>2</octave>        </pitch>        <duration>4</duration>        <voice>2</voice>        <type>half</type>        <stem default-y="-73.5">down</stem>      </note>      <note default-x="162">        <pitch>          <step>F</step>          <octave>2</octave>        </pitch>        <duration>4</duration>        <tie type="start"/>        <voice>2</voice>        <type>half</type>        <stem default-y="-73.5">down</stem>        <notations>          <tied orientation="under" type="start"/>        </notations>      </note>    </measure>    <!--=======================================================-->    <measure number="7" width="193">      <note default-x="17">        <pitch>          <step>A</step>          <octave>3</octave>        </pitch>        <duration>4</duration>        <tie type="stop"/>        <voice>1</voice>        <type>half</type>        <stem default-y="29">up</stem>        <notations>          <tied type="stop"/>        </notations>      </note>      <note default-x="65">        <pitch>          <step>G</step>          <octave>3</octave>        </pitch>        <duration>4</duration>        <voice>1</voice>        <type>half</type>        <stem default-y="24">up</stem>      </note>      <note default-x="114">        <pitch>          <step>G</step>          <octave>3</octave>        </pitch>        <duration>8</duration>        <voice>1</voice>        <type>whole</type>      </note>      <backup>        <duration>16</duration>      </backup>      <note default-x="17">        <pitch>          <step>F</step>          <octave>2</octave>        </pitch>        <duration>4</duration>        <tie type="stop"/>        <voice>2</voice>        <type>half</type>        <stem default-y="-73.5">down</stem>        <notations>          <tied type="stop"/>        </notations>      </note>      <note default-x="65">        <pitch>          <step>C</step>          <octave>3</octave>        </pitch>        <duration>4</duration>        <voice>2</voice>        <type>half</type>        <stem default-y="-53.5">down</stem>      </note>      <note default-x="114">        <pitch>          <step>G</step>          <octave>2</octave>        </pitch>        <duration>8</duration>        <voice>2</voice>        <type>whole</type>      </note>    </measure>    <!--=======================================================-->    <measure number="8" width="183">      <note default-x="16">        <pitch>          <step>E</step>          <octave>3</octave>        </pitch>        <duration>8</duration>        <voice>1</voice>        <type>whole</type>      </note>      <note default-x="93">        <rest>          <display-step>C</display-step>          <display-octave>4</display-octave>        </rest>        <duration>8</duration>        <voice>1</voice>        <type>whole</type>      </note>      <backup>        <duration>16</duration>      </backup>      <note default-x="16">        <pitch>          <step>C</step>          <octave>3</octave>        </pitch>        <duration>8</duration>        <voice>2</voice>        <type>whole</type>      </note>      <note default-x="93">        <rest>          <display-step>E</display-step>          <display-octave>2</display-octave>        </rest>        <duration>8</duration>        <voice>2</voice>        <type>whole</type>      </note>      <barline location="right">        <bar-style>light-heavy</bar-style>      </barline>    </measure>  </part>  <!--=========================================================-->  <part id="P3">    <measure implicit="yes" number="0" width="159">      <print>        <measure-numbering>system</measure-numbering>      </print>      <attributes>        <divisions>2</divisions>        <key>          <fifths>0</fifths>          <mode>major</mode>        </key>        <time symbol="common">          <beats>4</beats>          <beat-type>4</beat-type>        </time>        <clef>          <sign>G</sign>          <line>2</line>        </clef>      </attributes>      <sound tempo="120"/>      <note default-x="88">        <pitch>          <step>C</step>          <octave>4</octave>        </pitch>        <duration>4</duration>        <voice>1</voice>        <type>half</type>        <stem default-y="15">up</stem>      </note>      <note default-x="101">        <chord/>        <pitch>          <step>D</step>          <octave>4</octave>        </pitch>        <duration>4</duration>        <voice>1</voice>        <type>half</type>        <stem>up</stem>      </note>      <note default-x="88">        <chord/>        <pitch>          <step>E</step>          <octave>4</octave>        </pitch>        <duration>4</duration>        <voice>1</voice>        <type>half</type>        <stem>up</stem>      </note>      <note default-x="101">        <chord/>        <pitch>          <step>F</step>          <octave>4</octave>        </pitch>        <duration>4</duration>        <voice>1</voice>        <type>half</type>        <stem>up</stem>      </note>      <note default-x="88">        <chord/>        <pitch>          <step>G</step>          <octave>4</octave>        </pitch>        <duration>4</duration>        <voice>1</voice>        <type>half</type>        <stem>up</stem>      </note>      <note default-x="101">        <chord/>        <pitch>          <step>A</step>          <octave>4</octave>        </pitch>        <duration>4</duration>        <voice>1</voice>        <type>half</type>        <stem>up</stem>      </note>      <note default-x="88">        <chord/>        <pitch>          <step>B</step>          <octave>4</octave>        </pitch>        <duration>4</duration>        <voice>1</voice>        <type>half</type>        <stem>up</stem>      </note>    </measure>    <!--=======================================================-->    <measure number="1" width="235">      <note>        <rest/>        <duration>16</duration>        <voice>1</voice>      </note>    </measure>    <!--=======================================================-->    <measure number="2" width="264">      <note>        <rest/>        <duration>16</duration>        <voice>1</voice>      </note>    </measure>    <!--=======================================================-->    <measure number="3" width="261">      <note>        <rest/>        <duration>16</duration>        <voice>1</voice>      </note>    </measure>    <!--=======================================================-->    <measure number="4" width="231">      <print new-page="yes"/>      <note>        <rest/>        <duration>16</duration>        <voice>1</voice>      </note>    </measure>    <!--=======================================================-->    <measure number="5" width="171">      <note>        <rest/>        <duration>16</duration>        <voice>1</voice>      </note>    </measure>    <!--=======================================================-->    <measure number="6" width="211">      <note>        <rest/>        <duration>16</duration>        <voice>1</voice>      </note>    </measure>    <!--=======================================================-->    <measure number="7" width="193">      <note>        <rest/>        <duration>16</duration>        <voice>1</voice>      </note>    </measure>    <!--=======================================================-->    <measure number="8" width="183">      <note>        <rest/>        <duration>16</duration>        <voice>1</voice>      </note>      <barline location="right">        <bar-style>light-heavy</bar-style>      </barline>    </measure>  </part>  <!--=========================================================-->  <part id="P4">    <measure implicit="yes" number="0" width="159">      <print>        <measure-numbering>system</measure-numbering>      </print>      <attributes>        <divisions>2</divisions>        <key>          <fifths>0</fifths>          <mode>major</mode>        </key>        <time symbol="common">          <beats>4</beats>          <beat-type>4</beat-type>        </time>        <clef>          <sign>G</sign>          <line>2</line>        </clef>      </attributes>      <sound tempo="120"/>      <note default-x="88">        <pitch>          <step>E</step>          <octave>4</octave>        </pitch>        <duration>4</duration>        <voice>1</voice>        <type>half</type>        <stem default-y="5.5">up</stem>      </note>      <note default-x="88">        <chord/>        <pitch>          <step>G</step>          <octave>4</octave>        </pitch>        <duration>4</duration>        <voice>1</voice>        <type>half</type>        <stem>up</stem>      </note>    </measure>    <!--=======================================================-->    <measure number="1" width="235">      <note>        <rest/>        <duration>16</duration>        <voice>1</voice>      </note>    </measure>    <!--=======================================================-->    <measure number="2" width="264">      <note>        <rest/>        <duration>16</duration>        <voice>1</voice>      </note>    </measure>    <!--=======================================================-->    <measure number="3" width="261">      <note>        <rest/>        <duration>16</duration>        <voice>1</voice>      </note>    </measure>    <!--=======================================================-->    <measure number="4" width="231">      <print new-page="yes"/>      <note default-x="53">        <rest/>        <duration>8</duration>        <voice>1</voice>        <type>whole</type>      </note>      <note default-x="131">        <rest/>        <duration>4</duration>        <voice>1</voice>        <type>half</type>      </note>      <note default-x="182">        <pitch>          <step>E</step>          <octave>4</octave>        </pitch>        <duration>4</duration>        <voice>1</voice>        <type>half</type>        <stem default-y="6">up</stem>      </note>      <note default-x="182">        <chord/>        <pitch>          <step>G</step>          <octave>4</octave>        </pitch>        <duration>4</duration>        <voice>1</voice>        <type>half</type>        <stem>up</stem>      </note>    </measure>    <!--=======================================================-->    <measure number="5" width="171">      <note>        <rest/>        <duration>16</duration>        <voice>1</voice>      </note>    </measure>    <!--=======================================================-->    <measure number="6" width="211">      <note>        <rest/>        <duration>16</duration>        <voice>1</voice>      </note>    </measure>    <!--=======================================================-->    <measure number="7" width="193">      <note>        <rest/>        <duration>16</duration>        <voice>1</voice>      </note>    </measure>    <!--=======================================================-->    <measure number="8" width="183">      <note>        <rest/>        <duration>16</duration>        <voice>1</voice>      </note>      <barline location="right">        <bar-style>light-heavy</bar-style>      </barline>    </measure>  </part>  <!--=========================================================-->  <part id="P5">    <measure implicit="yes" number="0" width="159">      <print>        <measure-numbering>system</measure-numbering>      </print>      <attributes>        <divisions>2</divisions>        <key>          <fifths>0</fifths>          <mode>major</mode>        </key>        <time symbol="common">          <beats>4</beats>          <beat-type>4</beat-type>        </time>        <clef>          <sign>G</sign>          <line>2</line>        </clef>      </attributes>      <sound tempo="120"/>      <note default-x="88">        <pitch>          <step>C</step>          <octave>5</octave>        </pitch>        <duration>4</duration>        <voice>1</voice>        <type>half</type>        <stem default-y="14">up</stem>      </note>      <backup>        <duration>4</duration>      </backup>      <note default-x="88">        <pitch>          <step>E</step>          <octave>4</octave>        </pitch>        <duration>4</duration>        <voice>2</voice>        <type>half</type>        <stem default-y="-69">down</stem>      </note>    </measure>    <!--=======================================================-->    <measure number="1" width="235">      <note default-x="13">        <pitch>          <step>C</step>          <octave>5</octave>        </pitch>        <duration>8</duration>        <voice>1</voice>        <type>whole</type>      </note>      <note default-x="124">        <pitch>          <step>C</step>          <octave>5</octave>        </pitch>        <duration>8</duration>        <voice>1</voice>        <type>whole</type>      </note>      <backup>        <duration>16</duration>      </backup>      <note default-x="13">        <pitch>          <step>E</step>          <octave>4</octave>        </pitch>        <duration>8</duration>        <voice>2</voice>        <type>whole</type>      </note>      <note default-x="124">        <pitch>          <step>F</step>          <octave>4</octave>        </pitch>        <duration>8</duration>        <voice>2</voice>        <type>whole</type>      </note>    </measure>    <!--=======================================================-->    <measure number="2" width="264">      <note default-x="16">        <pitch>          <step>G</step>          <octave>4</octave>        </pitch>        <duration>8</duration>        <voice>1</voice>        <type>whole</type>      </note>      <note default-x="127">        <pitch>          <step>A</step>          <octave>4</octave>        </pitch>        <duration>4</duration>        <voice>1</voice>        <type>half</type>        <stem default-y="11">up</stem>      </note>      <note default-x="195">        <pitch>          <step>C</step>          <octave>5</octave>        </pitch>        <duration>4</duration>        <tie type="start"/>        <voice>1</voice>        <type>half</type>        <stem default-y="14">up</stem>        <notations>          <tied orientation="over" type="start"/>        </notations>      </note>      <backup>        <duration>16</duration>      </backup>      <note default-x="16">        <pitch>          <step>E</step>          <octave>4</octave>        </pitch>        <duration>8</duration>        <voice>2</voice>        <type>whole</type>      </note>      <note default-x="127">        <pitch>          <step>E</step>          <octave>4</octave>        </pitch>        <duration>4</duration>        <voice>2</voice>        <type>half</type>        <stem default-y="-69">down</stem>      </note>      <note default-x="195">        <pitch>          <step>F</step>          <octave>4</octave>        </pitch>        <duration>4</duration>        <tie type="start"/>        <voice>2</voice>        <type>half</type>        <stem default-y="-64">down</stem>        <notations>          <tied orientation="under" type="start"/>        </notations>      </note>    </measure>    <!--=======================================================-->    <measure number="3" width="261">      <note default-x="14">        <pitch>          <step>C</step>          <octave>5</octave>        </pitch>        <duration>4</duration>        <tie type="stop"/>        <voice>1</voice>        <type>half</type>        <stem default-y="14">up</stem>        <notations>          <tied type="stop"/>        </notations>      </note>      <note default-x="82">        <pitch>          <step>B</step>          <octave>4</octave>        </pitch>        <duration>4</duration>        <voice>1</voice>        <type>half</type>        <stem default-y="15.5">up</stem>      </note>      <note default-x="150">        <pitch>          <step>A</step>          <octave>4</octave>        </pitch>        <duration>8</duration>        <voice>1</voice>        <type>whole</type>      </note>      <backup>        <duration>16</duration>      </backup>      <note default-x="14">        <pitch>          <step>F</step>          <octave>4</octave>        </pitch>        <duration>4</duration>        <tie type="stop"/>        <voice>2</voice>        <type>half</type>        <stem default-y="-64">down</stem>        <notations>          <tied type="stop"/>        </notations>      </note>      <note default-x="82">        <pitch>          <step>D</step>          <octave>4</octave>        </pitch>        <duration>4</duration>        <voice>2</voice>        <type>half</type>        <stem default-y="-74">down</stem>      </note>      <note default-x="150">        <pitch>          <step>D</step>          <octave>4</octave>        </pitch>        <duration>8</duration>        <voice>2</voice>        <type>whole</type>      </note>    </measure>    <!--=======================================================-->    <measure number="4" width="231">      <print new-page="yes"/>      <note default-x="54">        <pitch>          <step>G</step>          <octave>4</octave>        </pitch>        <duration>8</duration>        <voice>1</voice>        <type>whole</type>        <notations>          <fermata default-x="-7" default-y="-45" type="inverted"/>        </notations>      </note>      <note default-x="131">        <rest>          <display-step>B</display-step>          <display-octave>4</display-octave>        </rest>        <duration>4</duration>        <voice>1</voice>        <type>half</type>      </note>      <note default-x="182">        <pitch>          <step>C</step>          <octave>5</octave>        </pitch>        <duration>4</duration>        <voice>1</voice>        <type>half</type>        <stem default-y="14">up</stem>      </note>      <backup>        <duration>16</duration>      </backup>      <note default-x="54">        <pitch>          <step>D</step>          <octave>4</octave>        </pitch>        <duration>8</duration>        <voice>2</voice>        <type>whole</type>      </note>      <note default-x="131">        <rest>          <display-step>C</display-step>          <display-octave>4</display-octave>        </rest>        <duration>4</duration>        <voice>2</voice>        <type>half</type>      </note>      <note default-x="182">        <pitch>          <step>F</step>          <octave>4</octave>        </pitch>        <duration>4</duration>        <voice>2</voice>        <type>half</type>        <stem default-y="-63.5">down</stem>      </note>    </measure>    <!--=======================================================-->    <measure number="5" width="171">      <note default-x="13">        <pitch>          <step>B</step>          <octave>4</octave>        </pitch>        <duration>8</duration>        <voice>1</voice>        <type>whole</type>      </note>      <note default-x="92">        <pitch>          <step>A</step>          <octave>4</octave>        </pitch>        <duration>8</duration>        <voice>1</voice>        <type>whole</type>      </note>      <backup>        <duration>16</duration>      </backup>      <note default-x="13">        <pitch>          <step>D</step>          <octave>4</octave>        </pitch>        <duration>8</duration>        <voice>2</voice>        <type>whole</type>      </note>      <note default-x="92">        <pitch>          <step>D</step>          <octave>4</octave>        </pitch>        <duration>8</duration>        <voice>2</voice>        <type>whole</type>      </note>    </measure>    <!--=======================================================-->    <measure number="6" width="211">      <note default-x="17">        <pitch>          <step>G</step>          <octave>4</octave>        </pitch>        <duration>8</duration>        <voice>1</voice>        <type>whole</type>      </note>      <note default-x="114">        <pitch>          <step>F</step>          <octave>4</octave>        </pitch>        <duration>8</duration>        <tie type="start"/>        <voice>1</voice>        <type>whole</type>        <notations>          <tied orientation="over" type="start"/>        </notations>      </note>      <backup>        <duration>16</duration>      </backup>      <note default-x="17">        <pitch>          <step>B</step>          <octave>3</octave>        </pitch>        <duration>4</duration>        <voice>2</voice>        <type>half</type>        <stem default-y="-83.5">down</stem>      </note>      <note default-x="65">        <pitch>          <step>E</step>          <octave>4</octave>        </pitch>        <duration>4</duration>        <voice>2</voice>        <type>half</type>        <stem default-y="-68.5">down</stem>      </note>      <note default-x="114">        <pitch>          <step>C</step>          <octave>4</octave>        </pitch>        <duration>8</duration>        <tie type="start"/>        <voice>2</voice>        <type>whole</type>        <notations>          <tied orientation="under" type="start"/>        </notations>      </note>    </measure>    <!--=======================================================-->    <measure number="7" width="193">      <note default-x="17">        <pitch>          <step>F</step>          <octave>4</octave>        </pitch>        <duration>4</duration>        <tie type="stop"/>        <voice>1</voice>        <type>half</type>        <stem default-y="1">up</stem>        <notations>          <tied type="stop"/>        </notations>      </note>      <note default-x="65">        <pitch>          <step>E</step>          <octave>4</octave>        </pitch>        <duration>4</duration>        <voice>1</voice>        <type>half</type>        <stem default-y="-5">up</stem>      </note>      <note default-x="114">        <pitch>          <step>D</step>          <octave>4</octave>        </pitch>        <duration>8</duration>        <voice>1</voice>        <type>whole</type>      </note>      <backup>        <duration>16</duration>      </backup>      <note default-x="16">        <pitch>          <step>C</step>          <octave>4</octave>        </pitch>        <duration>8</duration>        <tie type="stop"/>        <voice>2</voice>        <type>whole</type>        <notations>          <tied type="stop"/>        </notations>      </note>      <note default-x="114">        <pitch>          <step>B</step>          <octave>3</octave>        </pitch>        <duration>8</duration>        <voice>2</voice>        <type>whole</type>      </note>    </measure>    <!--=======================================================-->    <measure number="8" width="183">      <note default-x="16">        <pitch>          <step>C</step>          <octave>4</octave>        </pitch>        <duration>8</duration>        <voice>1</voice>        <type>whole</type>      </note>      <note default-x="93">        <rest>          <display-step>A</display-step>          <display-octave>5</display-octave>        </rest>        <duration>8</duration>        <voice>1</voice>        <type>whole</type>      </note>      <backup>        <duration>16</duration>      </backup>      <note default-x="16">        <pitch>          <step>G</step>          <octave>3</octave>        </pitch>        <duration>8</duration>        <voice>2</voice>        <type>whole</type>      </note>      <note default-x="93">        <rest>          <display-step>C</display-step>          <display-octave>4</display-octave>        </rest>        <duration>8</duration>        <voice>2</voice>        <type>whole</type>      </note>      <barline location="right">        <bar-style>light-heavy</bar-style>      </barline>    </measure>  </part>  <!--=========================================================-->  <part id="P6">    <measure implicit="yes" number="0" width="159">      <print>        <measure-numbering>system</measure-numbering>      </print>      <attributes>        <divisions>2</divisions>        <key>          <fifths>0</fifths>          <mode>major</mode>        </key>        <time symbol="common">          <beats>4</beats>          <beat-type>4</beat-type>        </time>        <clef>          <sign>F</sign>          <line>4</line>        </clef>      </attributes>      <sound tempo="120"/>      <note default-x="88">        <pitch>          <step>G</step>          <octave>3</octave>        </pitch>        <duration>4</duration>        <voice>1</voice>        <type>half</type>        <stem default-y="24">up</stem>      </note>      <backup>        <duration>4</duration>      </backup>      <note default-x="88">        <pitch>          <step>C</step>          <octave>3</octave>        </pitch>        <duration>4</duration>        <voice>2</voice>        <type>half</type>        <stem default-y="-54">down</stem>      </note>    </measure>    <!--=======================================================-->    <measure number="1" width="235">      <note default-x="13">        <pitch>          <step>A</step>          <octave>3</octave>        </pitch>        <duration>8</duration>        <voice>1</voice>        <type>whole</type>      </note>      <note default-x="124">        <pitch>          <step>A</step>          <octave>3</octave>        </pitch>        <duration>8</duration>        <voice>1</voice>        <type>whole</type>      </note>      <backup>        <duration>16</duration>      </backup>      <note default-x="13">        <pitch>          <step>A</step>          <octave>2</octave>        </pitch>        <duration>8</duration>        <voice>2</voice>        <type>whole</type>      </note>      <note default-x="124">        <pitch>          <step>F</step>          <octave>2</octave>        </pitch>        <duration>8</duration>        <voice>2</voice>        <type>whole</type>      </note>    </measure>    <!--=======================================================-->    <measure number="2" width="264">      <note default-x="16">        <pitch>          <step>C</step>          <octave>4</octave>        </pitch>        <duration>8</duration>        <voice>1</voice>        <type>whole</type>      </note>      <note default-x="127">        <pitch>          <step>C</step>          <octave>4</octave>        </pitch>        <duration>4</duration>        <voice>1</voice>        <type>half</type>        <stem default-y="39">up</stem>      </note>      <note default-x="195">        <pitch>          <step>A</step>          <octave>3</octave>        </pitch>        <duration>4</duration>        <tie type="start"/>        <voice>1</voice>        <type>half</type>        <stem default-y="29">up</stem>        <notations>          <tied orientation="over" type="start"/>        </notations>      </note>      <backup>        <duration>16</duration>      </backup>      <note default-x="16">        <pitch>          <step>C</step>          <octave>3</octave>        </pitch>        <duration>8</duration>        <voice>2</voice>        <type>whole</type>      </note>      <note default-x="127">        <pitch>          <step>A</step>          <octave>2</octave>        </pitch>        <duration>4</duration>        <voice>2</voice>        <type>half</type>        <stem default-y="-63.5">down</stem>      </note>      <note default-x="195">        <pitch>          <step>F</step>          <octave>2</octave>        </pitch>        <duration>4</duration>        <tie type="start"/>        <voice>2</voice>        <type>half</type>        <stem default-y="-74">down</stem>        <notations>          <tied orientation="under" type="start"/>        </notations>      </note>    </measure>    <!--=======================================================-->    <measure number="3" width="261">      <note default-x="14">        <pitch>          <step>A</step>          <octave>3</octave>        </pitch>        <duration>4</duration>        <tie type="stop"/>        <voice>1</voice>        <type>half</type>        <stem default-y="29">up</stem>        <notations>          <tied type="stop"/>        </notations>      </note>      <note default-x="82">        <pitch>          <step>G</step>          <octave>3</octave>        </pitch>        <duration>4</duration>        <voice>1</voice>        <type>half</type>        <stem default-y="24">up</stem>      </note>      <note default-x="150">        <pitch>          <step>F</step>          <alter>1</alter>          <octave>3</octave>        </pitch>        <duration>8</duration>        <voice>1</voice>        <type>whole</type>        <accidental>sharp</accidental>      </note>      <backup>        <duration>16</duration>      </backup>      <note default-x="14">        <pitch>          <step>F</step>          <octave>2</octave>        </pitch>        <duration>4</duration>        <tie type="stop"/>        <voice>2</voice>        <type>half</type>        <stem default-y="-74">down</stem>        <notations>          <tied type="stop"/>        </notations>      </note>      <note default-x="82">        <pitch>          <step>G</step>          <octave>2</octave>        </pitch>        <duration>4</duration>        <voice>2</voice>        <type>half</type>        <stem default-y="-69">down</stem>      </note>      <note default-x="150">        <pitch>          <step>D</step>          <octave>3</octave>        </pitch>        <duration>8</duration>        <voice>2</voice>        <type>whole</type>      </note>    </measure>    <!--=======================================================-->    <measure number="4" width="231">      <print new-page="yes"/>      <note default-x="54">        <pitch>          <step>B</step>          <octave>3</octave>        </pitch>        <duration>8</duration>        <voice>1</voice>        <type>whole</type>      </note>      <note default-x="131">        <rest>          <display-step>C</display-step>          <display-octave>4</display-octave>        </rest>        <duration>4</duration>        <voice>1</voice>        <type>half</type>      </note>      <note default-x="182">        <pitch>          <step>A</step>          <octave>3</octave>        </pitch>        <duration>4</duration>        <voice>1</voice>        <type>half</type>        <stem default-y="29">up</stem>      </note>      <backup>        <duration>16</duration>      </backup>      <note default-x="54">        <pitch>          <step>G</step>          <octave>2</octave>        </pitch>        <duration>8</duration>        <voice>2</voice>        <type>whole</type>      </note>      <note default-x="131">        <rest>          <display-step>E</display-step>          <display-octave>2</display-octave>        </rest>        <duration>4</duration>        <voice>2</voice>        <type>half</type>      </note>      <note default-x="182">        <pitch>          <step>F</step>          <octave>2</octave>        </pitch>        <duration>4</duration>        <voice>2</voice>        <type>half</type>        <stem default-y="-73.5">down</stem>      </note>    </measure>    <!--=======================================================-->    <measure number="5" width="171">      <note default-x="13">        <pitch>          <step>G</step>          <octave>3</octave>        </pitch>        <duration>8</duration>        <voice>1</voice>        <type>whole</type>      </note>      <note default-x="92">        <pitch>          <step>F</step>          <alter>1</alter>          <octave>3</octave>        </pitch>        <duration>8</duration>        <voice>1</voice>        <type>whole</type>        <accidental>sharp</accidental>      </note>      <backup>        <duration>16</duration>      </backup>      <note default-x="13">        <pitch>          <step>G</step>          <octave>2</octave>        </pitch>        <duration>8</duration>        <voice>2</voice>        <type>whole</type>      </note>      <note default-x="92">        <pitch>          <step>D</step>          <octave>3</octave>        </pitch>        <duration>8</duration>        <voice>2</voice>        <type>whole</type>      </note>    </measure>    <!--=======================================================-->    <measure number="6" width="211">      <note default-x="17">        <pitch>          <step>G</step>          <octave>3</octave>        </pitch>        <duration>4</duration>        <voice>1</voice>        <type>half</type>        <stem default-y="24">up</stem>      </note>      <note default-x="65">        <pitch>          <step>C</step>          <octave>4</octave>        </pitch>        <duration>4</duration>        <voice>1</voice>        <type>half</type>        <stem default-y="39">up</stem>      </note>      <note default-x="114">        <pitch>          <step>A</step>          <octave>3</octave>        </pitch>        <duration>8</duration>        <tie type="start"/>        <voice>1</voice>        <type>whole</type>        <notations>          <tied orientation="over" type="start"/>        </notations>      </note>      <backup>        <duration>16</duration>      </backup>      <note default-x="17">        <pitch>          <step>E</step>          <octave>3</octave>        </pitch>        <duration>4</duration>        <voice>2</voice>        <type>half</type>        <stem default-y="-50">down</stem>      </note>      <note default-x="65">        <pitch>          <step>C</step>          <octave>3</octave>        </pitch>        <duration>4</duration>        <voice>2</voice>        <type>half</type>        <stem default-y="-54">down</stem>      </note>      <note default-x="114">        <pitch>          <step>F</step>          <octave>2</octave>        </pitch>        <duration>8</duration>        <tie type="start"/>        <voice>2</voice>        <type>whole</type>        <notations>          <tied orientation="under" type="start"/>        </notations>      </note>    </measure>    <!--=======================================================-->    <measure number="7" width="193">      <note default-x="17">        <pitch>          <step>A</step>          <octave>3</octave>        </pitch>        <duration>4</duration>        <tie type="stop"/>        <voice>1</voice>        <type>half</type>        <stem default-y="29">up</stem>        <notations>          <tied type="stop"/>        </notations>      </note>      <note default-x="65">        <pitch>          <step>G</step>          <octave>3</octave>        </pitch>        <duration>12</duration>        <voice>1</voice>        <type>whole</type>        <dot/>      </note>      <backup>        <duration>16</duration>      </backup>      <note default-x="17">        <pitch>          <step>F</step>          <octave>2</octave>        </pitch>        <duration>4</duration>        <tie type="stop"/>        <voice>2</voice>        <type>half</type>        <stem default-y="-73.5">down</stem>        <notations>          <tied type="stop"/>        </notations>      </note>      <note default-x="65">        <pitch>          <step>C</step>          <octave>3</octave>        </pitch>        <duration>4</duration>        <voice>2</voice>        <type>half</type>        <stem default-y="-54">down</stem>      </note>      <note default-x="114">        <pitch>          <step>G</step>          <octave>2</octave>        </pitch>        <duration>8</duration>        <voice>2</voice>        <type>whole</type>      </note>    </measure>    <!--=======================================================-->    <measure number="8" width="183">      <note default-x="16">        <pitch>          <step>E</step>          <octave>3</octave>        </pitch>        <duration>8</duration>        <voice>1</voice>        <type>whole</type>      </note>      <note default-x="93">        <rest>          <display-step>C</display-step>          <display-octave>4</display-octave>        </rest>        <duration>8</duration>        <voice>1</voice>        <type>whole</type>      </note>      <backup>        <duration>16</duration>      </backup>      <note default-x="16">        <pitch>          <step>C</step>          <octave>3</octave>        </pitch>        <duration>8</duration>        <voice>2</voice>        <type>whole</type>      </note>      <note default-x="93">        <rest>          <display-step>E</display-step>          <display-octave>2</display-octave>        </rest>        <duration>8</duration>        <voice>2</voice>        <type>whole</type>      </note>      <barline location="right">        <bar-style>light-heavy</bar-style>      </barline>    </measure>  </part>  <!--=========================================================--></score-partwise>