<?xml version="1.0" encoding="UTF-8"?><!DOCTYPE score-partwise PUBLIC "-//Recordare//DTD MusicXML 2.0 Partwise//EN"                                "http://www.musicxml.org/dtds/partwise.dtd"><score-partwise version="2.0">  <identification>    <encoding>      <software>Finale 2011 for Macintosh</software>      <software>Dolet Light for Finale 2011</software>      <encoding-date>2014-08-18</encoding-date>      <supports attribute="new-system" element="print" type="yes" value="yes"/>      <supports attribute="new-page" element="print" type="yes" value="yes"/>    </encoding>  </identification>  <defaults>    <scaling>      <millimeters>6.0113</millimeters>      <tenths>40</tenths>    </scaling>    <page-layout>      <page-height>1859</page-height>      <page-width>1437</page-width>      <page-margins type="both">        <left-margin>269</left-margin>        <right-margin>269</right-margin>        <top-margin>265</top-margin>        <bottom-margin>265</bottom-margin>      </page-margins>    </page-layout>    <system-layout>      <system-margins>        <left-margin>0</left-margin>        <right-margin>0</right-margin>      </system-margins>      <system-distance>103</system-distance>      <top-system-distance>60</top-system-distance>    </system-layout>    <staff-layout>      <staff-distance>80</staff-distance>    </staff-layout>    <appearance>      <line-width type="stem">0.7487</line-width>      <line-width type="beam">5</line-width>      <line-width type="staff">0.7487</line-width>      <line-width type="light barline">0.7487</line-width>      <line-width type="heavy barline">5</line-width>      <line-width type="leger">0.7487</line-width>      <line-width type="ending">1.4583</line-width>      <line-width type="wedge">1.4583</line-width>      <line-width type="enclosure">0.7487</line-width>      <line-width type="tuplet bracket">0.7487</line-width>      <note-size type="grace">60</note-size>      <note-size type="cue">60</note-size>    </appearance>    <music-font font-family="Maestro" font-size="17"/>    <word-font font-family="Times New Roman" font-size="8.5"/>  </defaults>  <credit page="1">    <credit-words default-x="750" default-y="1661" font-size="17" justify="center" valign="top">91.Tha 'rthw na se parw</credit-words>  </credit>  <credit page="1">    <credit-words default-x="1016" default-y="1617" halign="left" justify="right" valign="top">Folk Song
Epirus Polyphony </credit-words>  </credit>  <credit page="1">    <credit-words default-x="216" default-y="1561" valign="top">HTD</credit-words>  </credit>  <part-list>    <part-group number="1" type="start">      <group-name>ms_0</group-name>      <group-abbreviation>ms_0</group-abbreviation>      <group-symbol default-x="-5">bracket</group-symbol>      <group-barline>yes</group-barline>    </part-group>    <score-part id="P1">      <part-name print-object="no">w</part-name>      <part-abbreviation print-object="no">w</part-abbreviation>      <score-instrument id="P1-I2">        <instrument-name>Voice Oohs</instrument-name>      </score-instrument>      <midi-instrument id="P1-I2">        <midi-channel>1</midi-channel>        <midi-program>1</midi-program>        <volume>78</volume>        <pan>0</pan>      </midi-instrument>    </score-part>    <score-part id="P2">      <part-name print-object="no">m</part-name>      <part-abbreviation print-object="no">m</part-abbreviation>      <score-instrument id="P2-I3">        <instrument-name>Choir Aahs</instrument-name>      </score-instrument>      <midi-instrument id="P2-I3">        <midi-channel>2</midi-channel>        <midi-program>20</midi-program>        <volume>78</volume>        <pan>0</pan>      </midi-instrument>    </score-part>    <part-group number="1" type="stop"/>    <score-part id="P3">      <part-name>Tonality</part-name>      <part-abbreviation>Ton.</part-abbreviation>      <score-instrument id="P3-I4">        <instrument-name>Grand Piano</instrument-name>      </score-instrument>      <midi-instrument id="P3-I4">        <midi-channel>3</midi-channel>        <midi-program>1</midi-program>        <volume>78</volume>        <pan>0</pan>      </midi-instrument>    </score-part>    <score-part id="P4">      <part-name>Grouping</part-name>      <part-abbreviation>Grp.</part-abbreviation>      <score-instrument id="P4-I5">        <instrument-name>Grand Piano</instrument-name>      </score-instrument>      <midi-instrument id="P4-I5">        <midi-channel>7</midi-channel>        <midi-program>1</midi-program>        <volume>78</volume>        <pan>0</pan>      </midi-instrument>    </score-part>    <part-group number="1" type="start">      <group-name>ms_1</group-name>      <group-abbreviation>ms_1</group-abbreviation>      <group-symbol default-x="-5">bracket</group-symbol>      <group-barline>yes</group-barline>    </part-group>    <score-part id="P5">      <part-name print-object="no">MusicXML Part</part-name>      <score-instrument id="P5-I6">        <instrument-name>MusicXML Default</instrument-name>      </score-instrument>      <midi-instrument id="P5-I6">        <midi-channel>1</midi-channel>        <midi-program>1</midi-program>        <volume>78</volume>        <pan>0</pan>      </midi-instrument>    </score-part>    <score-part id="P6">      <part-name print-object="no">MusicXML Part</part-name>      <score-instrument id="P6-I7">        <instrument-name>MusicXML Default</instrument-name>      </score-instrument>      <midi-instrument id="P6-I7">        <midi-channel>1</midi-channel>        <midi-program>1</midi-program>        <volume>78</volume>        <pan>0</pan>      </midi-instrument>    </score-part>    <part-group number="1" type="stop"/>  </part-list>  <!--=========================================================-->  <part id="P1">    <measure number="1" width="209">      <print>        <page-layout>          <page-height>1859</page-height>          <page-width>1437</page-width>          <page-margins>            <left-margin>269</left-margin>            <right-margin>269</right-margin>            <top-margin>265</top-margin>            <bottom-margin>133</bottom-margin>          </page-margins>        </page-layout>        <system-layout>          <top-system-distance>83</top-system-distance>        </system-layout>        <measure-numbering>system</measure-numbering>      </print>      <attributes>        <divisions>4</divisions>        <key>          <fifths>0</fifths>          <mode>major</mode>        </key>        <time>          <beats>2</beats>          <beat-type>4</beat-type>        </time>        <clef>          <sign>G</sign>          <line>2</line>        </clef>        <staff-details>          <staff-size>85</staff-size>        </staff-details>      </attributes>      <direction directive="yes" placement="above">        <direction-type>          <metronome default-y="34" font-family="EngraverTextT" font-size="7.2">            <beat-unit>quarter</beat-unit>            <per-minute>116</per-minute>          </metronome>        </direction-type>        <sound tempo="116"/>      </direction>      <note default-x="85">        <pitch>          <step>F</step>          <octave>5</octave>        </pitch>        <duration>2</duration>        <voice>1</voice>        <type>eighth</type>        <stem default-y="-29.5">down</stem>        <beam number="1">begin</beam>      </note>      <note default-x="115">        <pitch>          <step>F</step>          <octave>5</octave>        </pitch>        <duration>2</duration>        <voice>1</voice>        <type>eighth</type>        <stem default-y="-29.5">down</stem>        <beam number="1">end</beam>      </note>      <note default-x="146">        <pitch>          <step>G</step>          <octave>5</octave>        </pitch>        <duration>1</duration>        <voice>1</voice>        <type>16th</type>        <stem default-y="-34">down</stem>        <beam number="1">begin</beam>        <beam number="2">begin</beam>      </note>      <note default-x="161">        <pitch>          <step>F</step>          <octave>5</octave>        </pitch>        <duration>1</duration>        <voice>1</voice>        <type>16th</type>        <stem default-y="-36">down</stem>        <beam number="1">continue</beam>        <beam number="2">end</beam>      </note>      <note default-x="177">        <pitch>          <step>D</step>          <octave>5</octave>        </pitch>        <duration>2</duration>        <voice>1</voice>        <type>eighth</type>        <stem default-y="-38">down</stem>        <beam number="1">end</beam>      </note>    </measure>    <!--=======================================================-->    <measure number="2" width="138">      <note default-x="13">        <pitch>          <step>D</step>          <octave>5</octave>        </pitch>        <duration>2</duration>        <voice>1</voice>        <type>eighth</type>        <stem default-y="21.5">up</stem>        <beam number="1">begin</beam>      </note>      <note default-x="44">        <pitch>          <step>D</step>          <octave>5</octave>        </pitch>        <duration>2</duration>        <voice>1</voice>        <type>eighth</type>        <stem default-y="21.5">up</stem>        <beam number="1">end</beam>      </note>      <note default-x="75">        <pitch>          <step>D</step>          <octave>5</octave>        </pitch>        <duration>2</duration>        <voice>1</voice>        <type>eighth</type>        <stem default-y="21.5">up</stem>      </note>      <note default-x="106">        <pitch>          <step>D</step>          <octave>5</octave>        </pitch>        <duration>2</duration>        <voice>1</voice>        <type>eighth</type>        <stem default-y="21.5">up</stem>      </note>      <backup>        <duration>8</duration>      </backup>      <note default-x="14">        <rest>          <display-step>C</display-step>          <display-octave>4</display-octave>        </rest>        <duration>4</duration>        <voice>2</voice>        <type>quarter</type>      </note>      <note default-x="75">        <pitch>          <step>C</step>          <octave>5</octave>        </pitch>        <duration>1</duration>        <voice>2</voice>        <type>16th</type>        <stem default-y="-42.5">down</stem>        <beam number="1">begin</beam>        <beam number="2">begin</beam>      </note>      <note default-x="90">        <pitch>          <step>C</step>          <octave>5</octave>        </pitch>        <duration>1</duration>        <voice>2</voice>        <type>16th</type>        <stem default-y="-42.5">down</stem>        <beam number="1">end</beam>        <beam number="2">end</beam>      </note>      <note default-x="106">        <pitch>          <step>A</step>          <octave>4</octave>        </pitch>        <duration>2</duration>        <voice>2</voice>        <type>eighth</type>        <stem default-y="-51">down</stem>      </note>    </measure>    <!--=======================================================-->    <measure number="3" width="138">      <note default-x="14">        <pitch>          <step>A</step>          <octave>5</octave>        </pitch>        <duration>2</duration>        <voice>1</voice>        <type>eighth</type>        <stem default-y="38.5">up</stem>        <beam number="1">begin</beam>      </note>      <note default-x="44">        <pitch>          <step>A</step>          <octave>5</octave>        </pitch>        <duration>2</duration>        <voice>1</voice>        <type>eighth</type>        <stem default-y="38.5">up</stem>        <beam number="1">end</beam>      </note>      <note default-x="75">        <pitch>          <step>C</step>          <octave>6</octave>        </pitch>        <duration>2</duration>        <voice>1</voice>        <type>eighth</type>        <stem default-y="47">up</stem>        <beam number="1">begin</beam>      </note>      <note default-x="106">        <pitch>          <step>A</step>          <octave>5</octave>        </pitch>        <duration>2</duration>        <voice>1</voice>        <type>eighth</type>        <stem default-y="43">up</stem>        <beam number="1">end</beam>      </note>      <backup>        <duration>8</duration>      </backup>      <note default-x="14">        <pitch>          <step>A</step>          <octave>4</octave>        </pitch>        <duration>2</duration>        <voice>2</voice>        <type>eighth</type>        <stem default-y="-51">down</stem>        <beam number="1">begin</beam>      </note>      <note default-x="44">        <pitch>          <step>C</step>          <octave>5</octave>        </pitch>        <duration>2</duration>        <voice>2</voice>        <type>eighth</type>        <stem default-y="-46.5">down</stem>        <beam number="1">end</beam>      </note>      <note default-x="75">        <pitch>          <step>D</step>          <octave>5</octave>        </pitch>        <duration>2</duration>        <voice>2</voice>        <type>eighth</type>        <stem default-y="-38">down</stem>        <beam number="1">begin</beam>      </note>      <note default-x="106">        <pitch>          <step>D</step>          <octave>5</octave>        </pitch>        <duration>1</duration>        <voice>2</voice>        <type>16th</type>        <stem default-y="-41">down</stem>        <beam number="1">continue</beam>        <beam number="2">begin</beam>      </note>      <note default-x="121">        <pitch>          <step>C</step>          <octave>5</octave>        </pitch>        <duration>1</duration>        <voice>2</voice>        <type>16th</type>        <stem default-y="-42.5">down</stem>        <beam number="1">end</beam>        <beam number="2">end</beam>      </note>    </measure>    <!--=======================================================-->    <measure number="4" width="138">      <note default-x="14">        <pitch>          <step>G</step>          <octave>5</octave>        </pitch>        <duration>1</duration>        <voice>1</voice>        <type>16th</type>        <stem default-y="34">up</stem>        <beam number="1">begin</beam>        <beam number="2">begin</beam>      </note>      <note default-x="29">        <pitch>          <step>F</step>          <octave>5</octave>        </pitch>        <duration>1</duration>        <voice>1</voice>        <type>16th</type>        <stem default-y="32">up</stem>        <beam number="1">continue</beam>        <beam number="2">end</beam>      </note>      <note default-x="44">        <pitch>          <step>D</step>          <octave>5</octave>        </pitch>        <duration>2</duration>        <voice>1</voice>        <type>eighth</type>        <stem default-y="30">up</stem>        <beam number="1">end</beam>      </note>      <note default-x="75">        <pitch>          <step>D</step>          <octave>5</octave>        </pitch>        <duration>2</duration>        <voice>1</voice>        <type>eighth</type>        <stem default-y="21.5">up</stem>        <beam number="1">begin</beam>      </note>      <note default-x="106">        <pitch>          <step>D</step>          <octave>5</octave>        </pitch>        <duration>2</duration>        <voice>1</voice>        <type>eighth</type>        <stem default-y="21.5">up</stem>        <beam number="1">end</beam>      </note>      <backup>        <duration>8</duration>      </backup>      <note default-x="14">        <pitch>          <step>A</step>          <octave>4</octave>        </pitch>        <duration>2</duration>        <voice>2</voice>        <type>eighth</type>        <stem default-y="-51">down</stem>        <beam number="1">begin</beam>      </note>      <note default-x="44">        <pitch>          <step>C</step>          <octave>5</octave>        </pitch>        <duration>2</duration>        <voice>2</voice>        <type>eighth</type>        <stem default-y="-46.5">down</stem>        <beam number="1">end</beam>      </note>      <note default-x="75">        <pitch>          <step>D</step>          <octave>5</octave>        </pitch>        <duration>2</duration>        <voice>2</voice>        <type>eighth</type>        <stem default-y="-38">down</stem>        <beam number="1">begin</beam>      </note>      <note default-x="106">        <pitch>          <step>C</step>          <octave>5</octave>        </pitch>        <duration>2</duration>        <voice>2</voice>        <type>eighth</type>        <stem default-y="-42.5">down</stem>        <beam number="1">end</beam>      </note>    </measure>    <!--=======================================================-->    <measure number="5" width="138">      <note default-x="13">        <pitch>          <step>A</step>          <octave>5</octave>        </pitch>        <duration>2</duration>        <voice>1</voice>        <type>eighth</type>        <stem default-y="38.5">up</stem>        <beam number="1">begin</beam>      </note>      <note default-x="44">        <pitch>          <step>A</step>          <octave>5</octave>        </pitch>        <duration>2</duration>        <voice>1</voice>        <type>eighth</type>        <stem default-y="38.5">up</stem>        <beam number="1">end</beam>      </note>      <note default-x="75">        <pitch>          <step>A</step>          <octave>5</octave>        </pitch>        <duration>1</duration>        <voice>1</voice>        <type>16th</type>        <stem default-y="47">up</stem>        <beam number="1">begin</beam>        <beam number="2">begin</beam>      </note>      <note default-x="91">        <pitch>          <step>C</step>          <octave>6</octave>        </pitch>        <duration>1</duration>        <voice>1</voice>        <type>16th</type>        <stem default-y="47">up</stem>        <beam number="1">continue</beam>        <beam number="2">end</beam>      </note>      <note default-x="106">        <pitch>          <step>A</step>          <octave>5</octave>        </pitch>        <duration>2</duration>        <voice>1</voice>        <type>eighth</type>        <stem default-y="47">up</stem>        <beam number="1">end</beam>      </note>      <backup>        <duration>8</duration>      </backup>      <note default-x="13">        <pitch>          <step>A</step>          <octave>4</octave>        </pitch>        <duration>2</duration>        <voice>2</voice>        <type>eighth</type>        <stem default-y="-51">down</stem>        <beam number="1">begin</beam>      </note>      <note default-x="44">        <pitch>          <step>C</step>          <octave>5</octave>        </pitch>        <duration>2</duration>        <voice>2</voice>        <type>eighth</type>        <stem default-y="-46.5">down</stem>        <beam number="1">end</beam>      </note>      <note default-x="75">        <pitch>          <step>D</step>          <octave>5</octave>        </pitch>        <duration>2</duration>        <voice>2</voice>        <type>eighth</type>        <stem default-y="-38">down</stem>        <beam number="1">begin</beam>      </note>      <note default-x="106">        <pitch>          <step>D</step>          <octave>5</octave>        </pitch>        <duration>1</duration>        <voice>2</voice>        <type>16th</type>        <stem default-y="-41">down</stem>        <beam number="1">continue</beam>        <beam number="2">begin</beam>      </note>      <note default-x="121">        <pitch>          <step>C</step>          <octave>5</octave>        </pitch>        <duration>1</duration>        <voice>2</voice>        <type>16th</type>        <stem default-y="-42.5">down</stem>        <beam number="1">end</beam>        <beam number="2">end</beam>      </note>    </measure>    <!--=======================================================-->    <measure number="6" width="139">      <note default-x="14">        <pitch>          <step>G</step>          <octave>5</octave>        </pitch>        <duration>1</duration>        <voice>1</voice>        <type>16th</type>        <stem default-y="34">up</stem>        <beam number="1">begin</beam>        <beam number="2">begin</beam>      </note>      <note default-x="29">        <pitch>          <step>F</step>          <octave>5</octave>        </pitch>        <duration>1</duration>        <voice>1</voice>        <type>16th</type>        <stem default-y="32">up</stem>        <beam number="1">continue</beam>        <beam number="2">end</beam>      </note>      <note default-x="44">        <pitch>          <step>D</step>          <octave>5</octave>        </pitch>        <duration>2</duration>        <voice>1</voice>        <type>eighth</type>        <stem default-y="30">up</stem>        <beam number="1">end</beam>      </note>      <note default-x="75">        <pitch>          <step>D</step>          <octave>5</octave>        </pitch>        <duration>2</duration>        <voice>1</voice>        <type>eighth</type>        <stem default-y="21.5">up</stem>        <beam number="1">begin</beam>      </note>      <note default-x="106">        <pitch>          <step>D</step>          <octave>5</octave>        </pitch>        <duration>2</duration>        <voice>1</voice>        <type>eighth</type>        <stem default-y="21.5">up</stem>        <beam number="1">end</beam>      </note>      <backup>        <duration>8</duration>      </backup>      <note default-x="14">        <pitch>          <step>A</step>          <octave>4</octave>        </pitch>        <duration>2</duration>        <voice>2</voice>        <type>eighth</type>        <stem default-y="-51">down</stem>        <beam number="1">begin</beam>      </note>      <note default-x="44">        <pitch>          <step>C</step>          <octave>5</octave>        </pitch>        <duration>2</duration>        <voice>2</voice>        <type>eighth</type>        <stem default-y="-46.5">down</stem>        <beam number="1">end</beam>      </note>      <note default-x="75">        <pitch>          <step>D</step>          <octave>5</octave>        </pitch>        <duration>1</duration>        <voice>2</voice>        <type>16th</type>        <stem default-y="-46.5">down</stem>        <beam number="1">begin</beam>        <beam number="2">begin</beam>      </note>      <note default-x="91">        <pitch>          <step>C</step>          <octave>5</octave>        </pitch>        <duration>1</duration>        <voice>2</voice>        <type>16th</type>        <stem default-y="-49">down</stem>        <beam number="1">continue</beam>        <beam number="2">end</beam>      </note>      <note default-x="106">        <pitch>          <step>A</step>          <octave>4</octave>        </pitch>        <duration>2</duration>        <voice>2</voice>        <type>eighth</type>        <stem default-y="-51">down</stem>        <beam number="1">end</beam>      </note>    </measure>    <!--=======================================================-->    <measure number="7" width="181">      <print new-system="yes">        <system-layout>          <system-margins>            <left-margin>1</left-margin>            <right-margin>0</right-margin>          </system-margins>          <system-distance>97</system-distance>        </system-layout>      </print>      <note default-x="53">        <pitch>          <step>A</step>          <octave>5</octave>        </pitch>        <duration>2</duration>        <voice>1</voice>        <type>eighth</type>        <stem default-y="39">up</stem>        <beam number="1">begin</beam>      </note>      <note default-x="84">        <pitch>          <step>A</step>          <octave>5</octave>        </pitch>        <duration>2</duration>        <voice>1</voice>        <type>eighth</type>        <stem default-y="39">up</stem>        <beam number="1">end</beam>      </note>      <note default-x="117">        <pitch>          <step>A</step>          <octave>5</octave>        </pitch>        <duration>1</duration>        <voice>1</voice>        <type>16th</type>        <stem default-y="47">up</stem>        <beam number="1">begin</beam>        <beam number="2">begin</beam>      </note>      <note default-x="132">        <pitch>          <step>C</step>          <octave>6</octave>        </pitch>        <duration>1</duration>        <voice>1</voice>        <type>16th</type>        <stem default-y="47">up</stem>        <beam number="1">continue</beam>        <beam number="2">end</beam>      </note>      <note default-x="148">        <pitch>          <step>A</step>          <octave>5</octave>        </pitch>        <duration>2</duration>        <voice>1</voice>        <type>eighth</type>        <stem default-y="47">up</stem>        <beam number="1">end</beam>      </note>      <backup>        <duration>8</duration>      </backup>      <note default-x="53">        <pitch>          <step>A</step>          <octave>4</octave>        </pitch>        <duration>2</duration>        <voice>2</voice>        <type>eighth</type>        <stem default-y="-51">down</stem>        <beam number="1">begin</beam>      </note>      <note default-x="84">        <pitch>          <step>C</step>          <octave>5</octave>        </pitch>        <duration>2</duration>        <voice>2</voice>        <type>eighth</type>        <stem default-y="-46.5">down</stem>        <beam number="1">end</beam>      </note>      <note default-x="117">        <pitch>          <step>D</step>          <octave>5</octave>        </pitch>        <duration>2</duration>        <voice>2</voice>        <type>eighth</type>        <stem default-y="-38">down</stem>        <beam number="1">begin</beam>      </note>      <note default-x="148">        <pitch>          <step>D</step>          <octave>5</octave>        </pitch>        <duration>1</duration>        <voice>2</voice>        <type>16th</type>        <stem default-y="-41">down</stem>        <beam number="1">continue</beam>        <beam number="2">begin</beam>      </note>      <note default-x="163">        <pitch>          <step>C</step>          <octave>5</octave>        </pitch>        <duration>1</duration>        <voice>2</voice>        <type>16th</type>        <stem default-y="-42">down</stem>        <beam number="1">end</beam>        <beam number="2">end</beam>      </note>    </measure>    <!--=======================================================-->    <measure number="8" width="142">      <note default-x="14">        <pitch>          <step>G</step>          <octave>5</octave>        </pitch>        <duration>1</duration>        <voice>1</voice>        <type>16th</type>        <stem default-y="34">up</stem>        <beam number="1">begin</beam>        <beam number="2">begin</beam>      </note>      <note default-x="30">        <pitch>          <step>F</step>          <octave>5</octave>        </pitch>        <duration>1</duration>        <voice>1</voice>        <type>16th</type>        <stem default-y="32">up</stem>        <beam number="1">continue</beam>        <beam number="2">end</beam>      </note>      <note default-x="45">        <pitch>          <step>D</step>          <octave>5</octave>        </pitch>        <duration>2</duration>        <voice>1</voice>        <type>eighth</type>        <stem default-y="30">up</stem>        <beam number="1">end</beam>      </note>      <note default-x="77">        <pitch>          <step>D</step>          <octave>5</octave>        </pitch>        <duration>2</duration>        <voice>1</voice>        <type>eighth</type>        <stem default-y="22">up</stem>        <beam number="1">begin</beam>      </note>      <note default-x="109">        <pitch>          <step>D</step>          <octave>5</octave>        </pitch>        <duration>2</duration>        <voice>1</voice>        <type>eighth</type>        <stem default-y="22">up</stem>        <beam number="1">end</beam>      </note>      <backup>        <duration>8</duration>      </backup>      <note default-x="14">        <pitch>          <step>D</step>          <octave>5</octave>        </pitch>        <duration>1</duration>        <voice>2</voice>        <type>16th</type>        <stem default-y="-42">down</stem>        <beam number="1">begin</beam>        <beam number="2">begin</beam>      </note>      <note default-x="30">        <pitch>          <step>C</step>          <octave>5</octave>        </pitch>        <duration>1</duration>        <voice>2</voice>        <type>16th</type>        <stem default-y="-42">down</stem>        <beam number="1">continue</beam>        <beam number="2">continue</beam>      </note>      <note default-x="45">        <pitch>          <step>D</step>          <octave>5</octave>        </pitch>        <duration>1</duration>        <voice>2</voice>        <type>16th</type>        <stem default-y="-42">down</stem>        <beam number="1">continue</beam>        <beam number="2">continue</beam>      </note>      <note default-x="61">        <pitch>          <step>C</step>          <octave>5</octave>        </pitch>        <duration>1</duration>        <voice>2</voice>        <type>16th</type>        <stem default-y="-42">down</stem>        <beam number="1">end</beam>        <beam number="2">end</beam>      </note>      <note default-x="77">        <pitch>          <step>D</step>          <octave>5</octave>        </pitch>        <duration>1</duration>        <voice>2</voice>        <type>16th</type>        <stem default-y="-46.5">down</stem>        <beam number="1">begin</beam>        <beam number="2">begin</beam>      </note>      <note default-x="93">        <pitch>          <step>C</step>          <octave>5</octave>        </pitch>        <duration>1</duration>        <voice>2</voice>        <type>16th</type>        <stem default-y="-49">down</stem>        <beam number="1">continue</beam>        <beam number="2">end</beam>      </note>      <note default-x="109">        <pitch>          <step>A</step>          <octave>4</octave>        </pitch>        <duration>2</duration>        <voice>2</voice>        <type>eighth</type>        <stem default-y="-51">down</stem>        <beam number="1">end</beam>      </note>    </measure>    <!--=======================================================-->    <measure number="9" width="142">      <note default-x="14">        <pitch>          <step>A</step>          <octave>5</octave>        </pitch>        <duration>3</duration>        <voice>1</voice>        <type>eighth</type>        <dot/>        <stem default-y="43">up</stem>        <beam number="1">begin</beam>      </note>      <note default-x="61">        <pitch>          <step>C</step>          <octave>6</octave>        </pitch>        <duration>1</duration>        <voice>1</voice>        <type>16th</type>        <stem default-y="47">up</stem>        <beam number="1">end</beam>        <beam number="2">backward hook</beam>      </note>      <note default-x="78">        <pitch>          <step>A</step>          <octave>5</octave>        </pitch>        <duration>2</duration>        <voice>1</voice>        <type>eighth</type>        <stem default-y="43">up</stem>        <beam number="1">begin</beam>      </note>      <note default-x="109">        <pitch>          <step>C</step>          <octave>6</octave>        </pitch>        <duration>2</duration>        <voice>1</voice>        <type>eighth</type>        <stem default-y="47">up</stem>        <beam number="1">end</beam>      </note>      <backup>        <duration>8</duration>      </backup>      <note default-x="14">        <pitch>          <step>A</step>          <octave>4</octave>        </pitch>        <duration>3</duration>        <voice>2</voice>        <type>eighth</type>        <dot/>        <stem default-y="-51">down</stem>        <beam number="1">begin</beam>      </note>      <note default-x="61">        <pitch>          <step>C</step>          <octave>5</octave>        </pitch>        <duration>1</duration>        <voice>2</voice>        <type>16th</type>        <stem default-y="-46.5">down</stem>        <beam number="1">end</beam>        <beam number="2">backward hook</beam>      </note>      <note default-x="78">        <pitch>          <step>A</step>          <octave>4</octave>        </pitch>        <duration>2</duration>        <voice>2</voice>        <type>eighth</type>        <stem default-y="-51">down</stem>        <beam number="1">begin</beam>      </note>      <note default-x="109">        <pitch>          <step>C</step>          <octave>5</octave>        </pitch>        <duration>2</duration>        <voice>2</voice>        <type>eighth</type>        <stem default-y="-46.5">down</stem>        <beam number="1">end</beam>      </note>    </measure>    <!--=======================================================-->    <measure number="10" width="142">      <note default-x="13">        <pitch>          <step>A</step>          <octave>5</octave>        </pitch>        <duration>4</duration>        <voice>1</voice>        <type>quarter</type>        <stem default-y="33">up</stem>      </note>      <note default-x="77">        <pitch>          <step>C</step>          <octave>6</octave>        </pitch>        <duration>4</duration>        <voice>1</voice>        <type>quarter</type>        <stem default-y="41.5">up</stem>      </note>      <backup>        <duration>8</duration>      </backup>      <note default-x="13">        <pitch>          <step>D</step>          <octave>5</octave>        </pitch>        <duration>3</duration>        <voice>2</voice>        <type>eighth</type>        <dot/>        <stem default-y="-38">down</stem>        <beam number="1">begin</beam>      </note>      <note default-x="61">        <pitch>          <step>C</step>          <octave>5</octave>        </pitch>        <duration>1</duration>        <voice>2</voice>        <type>16th</type>        <stem default-y="-42">down</stem>        <beam number="1">end</beam>        <beam number="2">backward hook</beam>      </note>      <note default-x="77">        <pitch>          <step>D</step>          <octave>5</octave>        </pitch>        <duration>4</duration>        <voice>2</voice>        <type>quarter</type>        <stem default-y="-38">down</stem>      </note>    </measure>    <!--=======================================================-->    <measure number="11" width="142">      <note default-x="14">        <pitch>          <step>A</step>          <octave>5</octave>        </pitch>        <duration>3</duration>        <voice>1</voice>        <type>eighth</type>        <dot/>        <stem default-y="43">up</stem>        <beam number="1">begin</beam>      </note>      <note default-x="61">        <pitch>          <step>C</step>          <octave>6</octave>        </pitch>        <duration>1</duration>        <voice>1</voice>        <type>16th</type>        <stem default-y="47">up</stem>        <beam number="1">end</beam>        <beam number="2">backward hook</beam>      </note>      <note default-x="77">        <pitch>          <step>G</step>          <octave>5</octave>        </pitch>        <duration>1</duration>        <voice>1</voice>        <type>16th</type>        <stem default-y="34">up</stem>        <beam number="1">begin</beam>        <beam number="2">begin</beam>      </note>      <note default-x="93">        <pitch>          <step>F</step>          <octave>5</octave>        </pitch>        <duration>1</duration>        <voice>1</voice>        <type>16th</type>        <stem default-y="32">up</stem>        <beam number="1">continue</beam>        <beam number="2">end</beam>      </note>      <note default-x="109">        <pitch>          <step>D</step>          <octave>5</octave>        </pitch>        <duration>2</duration>        <voice>1</voice>        <type>eighth</type>        <stem default-y="30">up</stem>        <beam number="1">end</beam>      </note>      <backup>        <duration>8</duration>      </backup>      <note default-x="14">        <pitch>          <step>A</step>          <octave>4</octave>        </pitch>        <duration>3</duration>        <voice>2</voice>        <type>eighth</type>        <dot/>        <stem default-y="-51">down</stem>        <beam number="1">begin</beam>      </note>      <note default-x="61">        <pitch>          <step>C</step>          <octave>5</octave>        </pitch>        <duration>1</duration>        <voice>2</voice>        <type>16th</type>        <stem default-y="-46.5">down</stem>        <beam number="1">end</beam>        <beam number="2">backward hook</beam>      </note>      <note default-x="77">        <pitch>          <step>A</step>          <octave>4</octave>        </pitch>        <duration>2</duration>        <voice>2</voice>        <type>eighth</type>        <stem default-y="-51">down</stem>        <beam number="1">begin</beam>      </note>      <note default-x="109">        <pitch>          <step>C</step>          <octave>5</octave>        </pitch>        <duration>2</duration>        <voice>2</voice>        <type>eighth</type>        <stem default-y="-46.5">down</stem>        <beam number="1">end</beam>      </note>    </measure>    <!--=======================================================-->    <measure number="12" width="151">      <note default-x="14">        <pitch>          <step>D</step>          <octave>5</octave>        </pitch>        <duration>4</duration>        <voice>1</voice>        <type>quarter</type>        <stem default-y="16">up</stem>      </note>      <note default-x="77">        <pitch>          <step>D</step>          <octave>5</octave>        </pitch>        <duration>2</duration>        <voice>1</voice>        <type>eighth</type>        <stem default-y="22">up</stem>      </note>      <note default-x="109">        <rest>          <display-step>A</display-step>          <display-octave>5</display-octave>        </rest>        <duration>2</duration>        <voice>1</voice>        <type>eighth</type>      </note>      <backup>        <duration>8</duration>      </backup>      <note default-x="14">        <pitch>          <step>D</step>          <octave>5</octave>        </pitch>        <duration>3</duration>        <voice>2</voice>        <type>eighth</type>        <dot/>        <stem default-y="-38">down</stem>        <beam number="1">begin</beam>      </note>      <note default-x="61">        <pitch>          <step>C</step>          <octave>5</octave>        </pitch>        <duration>1</duration>        <voice>2</voice>        <type>16th</type>        <stem default-y="-42">down</stem>        <beam number="1">end</beam>        <beam number="2">backward hook</beam>      </note>      <note default-x="77">        <pitch>          <step>A</step>          <octave>4</octave>        </pitch>        <duration>2</duration>        <voice>2</voice>        <type>eighth</type>        <stem default-y="-51">down</stem>      </note>      <note default-x="109">        <rest>          <display-step>C</display-step>          <display-octave>4</display-octave>        </rest>        <duration>2</duration>        <voice>2</voice>        <type>eighth</type>      </note>      <barline location="right">        <bar-style>light-heavy</bar-style>      </barline>    </measure>  </part>  <!--=========================================================-->  <part id="P2">    <measure number="1" width="209">      <print>        <staff-layout number="1">          <staff-distance>61</staff-distance>        </staff-layout>        <measure-numbering>none</measure-numbering>      </print>      <attributes>        <divisions>4</divisions>        <key>          <fifths>0</fifths>          <mode>major</mode>        </key>        <time>          <beats>2</beats>          <beat-type>4</beat-type>        </time>        <clef>          <sign>G</sign>          <line>2</line>        </clef>        <staff-details>          <staff-size>85</staff-size>        </staff-details>      </attributes>      <note>        <rest/>        <duration>8</duration>        <voice>1</voice>      </note>    </measure>    <!--=======================================================-->    <measure number="2" width="138">      <note>        <rest/>        <duration>8</duration>        <voice>1</voice>      </note>    </measure>    <!--=======================================================-->    <measure number="3" width="138">      <note default-x="14">        <pitch>          <step>F</step>          <octave>4</octave>        </pitch>        <duration>2</duration>        <voice>1</voice>        <type>eighth</type>        <stem default-y="0">up</stem>      </note>      <note default-x="44">        <pitch>          <step>F</step>          <octave>4</octave>        </pitch>        <duration>2</duration>        <voice>1</voice>        <type>eighth</type>        <stem default-y="0">up</stem>      </note>      <note default-x="75">        <pitch>          <step>F</step>          <octave>4</octave>        </pitch>        <duration>2</duration>        <voice>1</voice>        <type>eighth</type>        <stem default-y="0">up</stem>      </note>      <note default-x="106">        <pitch>          <step>F</step>          <octave>4</octave>        </pitch>        <duration>2</duration>        <voice>1</voice>        <type>eighth</type>        <stem default-y="0">up</stem>      </note>      <backup>        <duration>8</duration>      </backup>      <note default-x="14">        <pitch>          <step>D</step>          <octave>4</octave>        </pitch>        <duration>2</duration>        <voice>2</voice>        <type>eighth</type>        <stem default-y="-68.5">down</stem>      </note>      <note default-x="44">        <pitch>          <step>D</step>          <octave>4</octave>        </pitch>        <duration>2</duration>        <voice>2</voice>        <type>eighth</type>        <stem default-y="-68.5">down</stem>      </note>      <note default-x="75">        <pitch>          <step>D</step>          <octave>4</octave>        </pitch>        <duration>2</duration>        <voice>2</voice>        <type>eighth</type>        <stem default-y="-68.5">down</stem>      </note>      <note default-x="106">        <pitch>          <step>D</step>          <octave>4</octave>        </pitch>        <duration>2</duration>        <voice>2</voice>        <type>eighth</type>        <stem default-y="-68.5">down</stem>      </note>    </measure>    <!--=======================================================-->    <measure number="4" width="138">      <note default-x="14">        <pitch>          <step>F</step>          <octave>4</octave>        </pitch>        <duration>2</duration>        <voice>1</voice>        <type>eighth</type>        <stem default-y="0">up</stem>      </note>      <note default-x="44">        <pitch>          <step>F</step>          <octave>4</octave>        </pitch>        <duration>2</duration>        <voice>1</voice>        <type>eighth</type>        <stem default-y="0">up</stem>      </note>      <note default-x="75">        <pitch>          <step>F</step>          <octave>4</octave>        </pitch>        <duration>2</duration>        <voice>1</voice>        <type>eighth</type>        <stem default-y="0">up</stem>      </note>      <note default-x="106">        <pitch>          <step>F</step>          <octave>4</octave>        </pitch>        <duration>2</duration>        <voice>1</voice>        <type>eighth</type>        <stem default-y="0">up</stem>      </note>      <backup>        <duration>8</duration>      </backup>      <note default-x="14">        <pitch>          <step>D</step>          <octave>4</octave>        </pitch>        <duration>2</duration>        <voice>2</voice>        <type>eighth</type>        <stem default-y="-68.5">down</stem>      </note>      <note default-x="44">        <pitch>          <step>D</step>          <octave>4</octave>        </pitch>        <duration>2</duration>        <voice>2</voice>        <type>eighth</type>        <stem default-y="-68.5">down</stem>      </note>      <note default-x="75">        <pitch>          <step>D</step>          <octave>4</octave>        </pitch>        <duration>2</duration>        <voice>2</voice>        <type>eighth</type>        <stem default-y="-68.5">down</stem>      </note>      <note default-x="106">        <pitch>          <step>D</step>          <octave>4</octave>        </pitch>        <duration>2</duration>        <voice>2</voice>        <type>eighth</type>        <stem default-y="-68.5">down</stem>      </note>    </measure>    <!--=======================================================-->    <measure number="5" width="138">      <note default-x="13">        <pitch>          <step>F</step>          <octave>4</octave>        </pitch>        <duration>2</duration>        <voice>1</voice>        <type>eighth</type>        <stem default-y="0">up</stem>      </note>      <note default-x="44">        <pitch>          <step>F</step>          <octave>4</octave>        </pitch>        <duration>2</duration>        <voice>1</voice>        <type>eighth</type>        <stem default-y="0">up</stem>      </note>      <note default-x="75">        <pitch>          <step>F</step>          <octave>4</octave>        </pitch>        <duration>2</duration>        <voice>1</voice>        <type>eighth</type>        <stem default-y="0">up</stem>      </note>      <note default-x="106">        <pitch>          <step>F</step>          <octave>4</octave>        </pitch>        <duration>2</duration>        <voice>1</voice>        <type>eighth</type>        <stem default-y="0">up</stem>      </note>      <backup>        <duration>8</duration>      </backup>      <note default-x="13">        <pitch>          <step>D</step>          <octave>4</octave>        </pitch>        <duration>2</duration>        <voice>2</voice>        <type>eighth</type>        <stem default-y="-68.5">down</stem>      </note>      <note default-x="44">        <pitch>          <step>D</step>          <octave>4</octave>        </pitch>        <duration>2</duration>        <voice>2</voice>        <type>eighth</type>        <stem default-y="-68.5">down</stem>      </note>      <note default-x="75">        <pitch>          <step>D</step>          <octave>4</octave>        </pitch>        <duration>2</duration>        <voice>2</voice>        <type>eighth</type>        <stem default-y="-68.5">down</stem>      </note>      <note default-x="106">        <pitch>          <step>D</step>          <octave>4</octave>        </pitch>        <duration>2</duration>        <voice>2</voice>        <type>eighth</type>        <stem default-y="-68.5">down</stem>      </note>    </measure>    <!--=======================================================-->    <measure number="6" width="139">      <note default-x="14">        <pitch>          <step>F</step>          <octave>4</octave>        </pitch>        <duration>2</duration>        <voice>1</voice>        <type>eighth</type>        <stem default-y="0">up</stem>      </note>      <note default-x="44">        <pitch>          <step>F</step>          <octave>4</octave>        </pitch>        <duration>2</duration>        <voice>1</voice>        <type>eighth</type>        <stem default-y="0">up</stem>      </note>      <note default-x="75">        <pitch>          <step>F</step>          <octave>4</octave>        </pitch>        <duration>2</duration>        <voice>1</voice>        <type>eighth</type>        <stem default-y="0">up</stem>      </note>      <note default-x="106">        <pitch>          <step>F</step>          <octave>4</octave>        </pitch>        <duration>2</duration>        <voice>1</voice>        <type>eighth</type>        <stem default-y="0">up</stem>      </note>      <backup>        <duration>8</duration>      </backup>      <note default-x="14">        <pitch>          <step>D</step>          <octave>4</octave>        </pitch>        <duration>2</duration>        <voice>2</voice>        <type>eighth</type>        <stem default-y="-68.5">down</stem>      </note>      <note default-x="44">        <pitch>          <step>D</step>          <octave>4</octave>        </pitch>        <duration>2</duration>        <voice>2</voice>        <type>eighth</type>        <stem default-y="-68.5">down</stem>      </note>      <note default-x="75">        <pitch>          <step>D</step>          <octave>4</octave>        </pitch>        <duration>2</duration>        <voice>2</voice>        <type>eighth</type>        <stem default-y="-68.5">down</stem>      </note>      <note default-x="106">        <pitch>          <step>D</step>          <octave>4</octave>        </pitch>        <duration>2</duration>        <voice>2</voice>        <type>eighth</type>        <stem default-y="-68.5">down</stem>      </note>    </measure>    <!--=======================================================-->    <measure number="7" width="181">      <print new-system="yes">        <staff-layout number="1">          <staff-distance>57</staff-distance>        </staff-layout>      </print>      <note default-x="53">        <pitch>          <step>F</step>          <octave>4</octave>        </pitch>        <duration>2</duration>        <voice>1</voice>        <type>eighth</type>        <stem default-y="0">up</stem>      </note>      <note default-x="84">        <pitch>          <step>F</step>          <octave>4</octave>        </pitch>        <duration>2</duration>        <voice>1</voice>        <type>eighth</type>        <stem default-y="0">up</stem>      </note>      <note default-x="117">        <pitch>          <step>F</step>          <octave>4</octave>        </pitch>        <duration>2</duration>        <voice>1</voice>        <type>eighth</type>        <stem default-y="0">up</stem>      </note>      <note default-x="148">        <pitch>          <step>F</step>          <octave>4</octave>        </pitch>        <duration>2</duration>        <voice>1</voice>        <type>eighth</type>        <stem default-y="0">up</stem>      </note>      <backup>        <duration>8</duration>      </backup>      <note default-x="53">        <pitch>          <step>D</step>          <octave>4</octave>        </pitch>        <duration>2</duration>        <voice>2</voice>        <type>eighth</type>        <stem default-y="-68">down</stem>      </note>      <note default-x="84">        <pitch>          <step>D</step>          <octave>4</octave>        </pitch>        <duration>2</duration>        <voice>2</voice>        <type>eighth</type>        <stem default-y="-68">down</stem>      </note>      <note default-x="117">        <pitch>          <step>D</step>          <octave>4</octave>        </pitch>        <duration>2</duration>        <voice>2</voice>        <type>eighth</type>        <stem default-y="-68">down</stem>      </note>      <note default-x="148">        <pitch>          <step>D</step>          <octave>4</octave>        </pitch>        <duration>2</duration>        <voice>2</voice>        <type>eighth</type>        <stem default-y="-68">down</stem>      </note>    </measure>    <!--=======================================================-->    <measure number="8" width="142">      <note default-x="14">        <pitch>          <step>F</step>          <octave>4</octave>        </pitch>        <duration>2</duration>        <voice>1</voice>        <type>eighth</type>        <stem default-y="0">up</stem>      </note>      <note default-x="45">        <pitch>          <step>F</step>          <octave>4</octave>        </pitch>        <duration>2</duration>        <voice>1</voice>        <type>eighth</type>        <stem default-y="0">up</stem>      </note>      <note default-x="77">        <pitch>          <step>F</step>          <octave>4</octave>        </pitch>        <duration>2</duration>        <voice>1</voice>        <type>eighth</type>        <stem default-y="0">up</stem>      </note>      <note default-x="109">        <pitch>          <step>F</step>          <octave>4</octave>        </pitch>        <duration>2</duration>        <voice>1</voice>        <type>eighth</type>        <stem default-y="0">up</stem>      </note>      <backup>        <duration>8</duration>      </backup>      <note default-x="14">        <pitch>          <step>D</step>          <octave>4</octave>        </pitch>        <duration>2</duration>        <voice>2</voice>        <type>eighth</type>        <stem default-y="-68">down</stem>      </note>      <note default-x="45">        <pitch>          <step>D</step>          <octave>4</octave>        </pitch>        <duration>2</duration>        <voice>2</voice>        <type>eighth</type>        <stem default-y="-68">down</stem>      </note>      <note default-x="77">        <pitch>          <step>D</step>          <octave>4</octave>        </pitch>        <duration>2</duration>        <voice>2</voice>        <type>eighth</type>        <stem default-y="-68">down</stem>      </note>      <note default-x="109">        <pitch>          <step>D</step>          <octave>4</octave>        </pitch>        <duration>2</duration>        <voice>2</voice>        <type>eighth</type>        <stem default-y="-68">down</stem>      </note>    </measure>    <!--=======================================================-->    <measure number="9" width="142">      <note default-x="14">        <pitch>          <step>F</step>          <octave>4</octave>        </pitch>        <duration>3</duration>        <voice>1</voice>        <type>eighth</type>        <dot/>        <stem default-y="0">up</stem>      </note>      <note default-x="61">        <pitch>          <step>F</step>          <octave>4</octave>        </pitch>        <duration>1</duration>        <voice>1</voice>        <type>16th</type>        <stem default-y="0">up</stem>      </note>      <note default-x="78">        <pitch>          <step>F</step>          <octave>4</octave>        </pitch>        <duration>2</duration>        <voice>1</voice>        <type>eighth</type>        <stem default-y="0">up</stem>      </note>      <note default-x="109">        <pitch>          <step>F</step>          <octave>4</octave>        </pitch>        <duration>2</duration>        <voice>1</voice>        <type>eighth</type>        <stem default-y="0">up</stem>      </note>      <backup>        <duration>8</duration>      </backup>      <note default-x="14">        <pitch>          <step>D</step>          <octave>4</octave>        </pitch>        <duration>3</duration>        <voice>2</voice>        <type>eighth</type>        <dot/>        <stem default-y="-68">down</stem>      </note>      <note default-x="61">        <pitch>          <step>D</step>          <octave>4</octave>        </pitch>        <duration>1</duration>        <voice>2</voice>        <type>16th</type>        <stem default-y="-68">down</stem>      </note>      <note default-x="78">        <pitch>          <step>D</step>          <octave>4</octave>        </pitch>        <duration>2</duration>        <voice>2</voice>        <type>eighth</type>        <stem default-y="-68">down</stem>      </note>      <note default-x="109">        <pitch>          <step>D</step>          <octave>4</octave>        </pitch>        <duration>2</duration>        <voice>2</voice>        <type>eighth</type>        <stem default-y="-68">down</stem>      </note>    </measure>    <!--=======================================================-->    <measure number="10" width="142">      <note default-x="13">        <pitch>          <step>F</step>          <octave>4</octave>        </pitch>        <duration>4</duration>        <voice>1</voice>        <type>quarter</type>        <stem default-y="0">up</stem>      </note>      <note default-x="77">        <pitch>          <step>F</step>          <octave>4</octave>        </pitch>        <duration>4</duration>        <voice>1</voice>        <type>quarter</type>        <stem default-y="0">up</stem>      </note>      <backup>        <duration>8</duration>      </backup>      <note default-x="13">        <pitch>          <step>D</step>          <octave>4</octave>        </pitch>        <duration>4</duration>        <voice>2</voice>        <type>quarter</type>        <stem default-y="-62.5">down</stem>      </note>      <note default-x="77">        <pitch>          <step>D</step>          <octave>4</octave>        </pitch>        <duration>4</duration>        <voice>2</voice>        <type>quarter</type>        <stem default-y="-62.5">down</stem>      </note>    </measure>    <!--=======================================================-->    <measure number="11" width="142">      <note default-x="14">        <pitch>          <step>F</step>          <octave>4</octave>        </pitch>        <duration>3</duration>        <voice>1</voice>        <type>eighth</type>        <dot/>        <stem default-y="0">up</stem>      </note>      <note default-x="61">        <pitch>          <step>F</step>          <octave>4</octave>        </pitch>        <duration>1</duration>        <voice>1</voice>        <type>16th</type>        <stem default-y="0">up</stem>      </note>      <note default-x="77">        <pitch>          <step>F</step>          <octave>4</octave>        </pitch>        <duration>2</duration>        <voice>1</voice>        <type>eighth</type>        <stem default-y="0">up</stem>      </note>      <note default-x="109">        <pitch>          <step>F</step>          <octave>4</octave>        </pitch>        <duration>2</duration>        <voice>1</voice>        <type>eighth</type>        <stem default-y="0">up</stem>      </note>      <backup>        <duration>8</duration>      </backup>      <note default-x="14">        <pitch>          <step>D</step>          <octave>4</octave>        </pitch>        <duration>3</duration>        <voice>2</voice>        <type>eighth</type>        <dot/>        <stem default-y="-68">down</stem>      </note>      <note default-x="61">        <pitch>          <step>D</step>          <octave>4</octave>        </pitch>        <duration>1</duration>        <voice>2</voice>        <type>16th</type>        <stem default-y="-68">down</stem>      </note>      <note default-x="77">        <pitch>          <step>D</step>          <octave>4</octave>        </pitch>        <duration>2</duration>        <voice>2</voice>        <type>eighth</type>        <stem default-y="-68">down</stem>      </note>      <note default-x="109">        <pitch>          <step>D</step>          <octave>4</octave>        </pitch>        <duration>2</duration>        <voice>2</voice>        <type>eighth</type>        <stem default-y="-68">down</stem>      </note>    </measure>    <!--=======================================================-->    <measure number="12" width="151">      <note default-x="14">        <pitch>          <step>D</step>          <octave>4</octave>        </pitch>        <duration>4</duration>        <voice>1</voice>        <type>quarter</type>        <stem default-y="-8">up</stem>      </note>      <note default-x="77">        <pitch>          <step>D</step>          <octave>4</octave>        </pitch>        <duration>2</duration>        <voice>1</voice>        <type>eighth</type>        <stem default-y="-8">up</stem>      </note>      <note default-x="109">        <rest>          <display-step>A</display-step>          <display-octave>5</display-octave>        </rest>        <duration>2</duration>        <voice>1</voice>        <type>eighth</type>      </note>      <backup>        <duration>8</duration>      </backup>      <note default-x="14">        <pitch>          <step>D</step>          <octave>4</octave>        </pitch>        <duration>4</duration>        <voice>2</voice>        <type>quarter</type>        <stem default-y="-62.5">down</stem>      </note>      <note default-x="77">        <pitch>          <step>D</step>          <octave>4</octave>        </pitch>        <duration>2</duration>        <voice>2</voice>        <type>eighth</type>        <stem default-y="-68">down</stem>      </note>      <note default-x="109">        <rest>          <display-step>C</display-step>          <display-octave>4</display-octave>        </rest>        <duration>2</duration>        <voice>2</voice>        <type>eighth</type>      </note>      <barline location="right">        <bar-style>light-heavy</bar-style>      </barline>    </measure>  </part>  <!--=========================================================-->  <part id="P3">    <measure number="1" width="209">      <print>        <staff-layout number="1">          <staff-distance>61</staff-distance>        </staff-layout>        <measure-numbering>none</measure-numbering>      </print>      <attributes>        <divisions>2</divisions>        <key>          <fifths>0</fifths>          <mode>major</mode>        </key>        <time>          <beats>2</beats>          <beat-type>4</beat-type>        </time>        <clef>          <sign>G</sign>          <line>2</line>        </clef>        <staff-details>          <staff-size>85</staff-size>        </staff-details>      </attributes>      <note default-x="85">        <pitch>          <step>D</step>          <octave>4</octave>        </pitch>        <duration>2</duration>        <voice>1</voice>        <type>quarter</type>        <stem default-y="11.5">up</stem>      </note>      <note default-x="85">        <chord/>        <pitch>          <step>F</step>          <octave>4</octave>        </pitch>        <duration>2</duration>        <voice>1</voice>        <type>quarter</type>        <stem>up</stem>      </note>      <note default-x="94">        <chord/>        <pitch>          <step>G</step>          <octave>4</octave>        </pitch>        <duration>2</duration>        <voice>1</voice>        <type>quarter</type>        <stem>up</stem>      </note>      <note default-x="85">        <chord/>        <pitch>          <step>A</step>          <octave>4</octave>        </pitch>        <duration>2</duration>        <voice>1</voice>        <type>quarter</type>        <stem>up</stem>      </note>      <note default-x="85">        <chord/>        <pitch>          <step>C</step>          <octave>5</octave>        </pitch>        <duration>2</duration>        <voice>1</voice>        <type>quarter</type>        <stem>up</stem>      </note>      <note default-x="146">        <rest/>        <duration>2</duration>        <voice>1</voice>        <type>quarter</type>      </note>    </measure>    <!--=======================================================-->    <measure number="2" width="138">      <note>        <rest/>        <duration>4</duration>        <voice>1</voice>      </note>    </measure>    <!--=======================================================-->    <measure number="3" width="138">      <note>        <rest/>        <duration>4</duration>        <voice>1</voice>      </note>    </measure>    <!--=======================================================-->    <measure number="4" width="138">      <note>        <rest/>        <duration>4</duration>        <voice>1</voice>      </note>    </measure>    <!--=======================================================-->    <measure number="5" width="138">      <note>        <rest/>        <duration>4</duration>        <voice>1</voice>      </note>    </measure>    <!--=======================================================-->    <measure number="6" width="139">      <note>        <rest/>        <duration>4</duration>        <voice>1</voice>      </note>    </measure>    <!--=======================================================-->    <measure number="7" width="181">      <print new-system="yes">        <staff-layout number="1">          <staff-distance>55</staff-distance>        </staff-layout>      </print>      <note>        <rest/>        <duration>4</duration>        <voice>1</voice>      </note>    </measure>    <!--=======================================================-->    <measure number="8" width="142">      <note>        <rest/>        <duration>4</duration>        <voice>1</voice>      </note>    </measure>    <!--=======================================================-->    <measure number="9" width="142">      <note>        <rest/>        <duration>4</duration>        <voice>1</voice>      </note>    </measure>    <!--=======================================================-->    <measure number="10" width="142">      <note>        <rest/>        <duration>4</duration>        <voice>1</voice>      </note>    </measure>    <!--=======================================================-->    <measure number="11" width="142">      <note>        <rest/>        <duration>4</duration>        <voice>1</voice>      </note>    </measure>    <!--=======================================================-->    <measure number="12" width="151">      <note>        <rest/>        <duration>4</duration>        <voice>1</voice>      </note>      <barline location="right">        <bar-style>light-heavy</bar-style>      </barline>    </measure>  </part>  <!--=========================================================-->  <part id="P4">    <measure number="1" width="209">      <print>        <staff-layout number="1">          <staff-distance>48</staff-distance>        </staff-layout>        <measure-numbering>none</measure-numbering>      </print>      <attributes>        <divisions>2</divisions>        <key>          <fifths>0</fifths>          <mode>major</mode>        </key>        <time>          <beats>2</beats>          <beat-type>4</beat-type>        </time>        <clef>          <sign>G</sign>          <line>2</line>        </clef>        <staff-details>          <staff-size>85</staff-size>        </staff-details>      </attributes>      <note default-x="85">        <pitch>          <step>E</step>          <octave>5</octave>        </pitch>        <duration>2</duration>        <voice>1</voice>        <type>quarter</type>        <stem default-y="-34">down</stem>      </note>      <note default-x="146">        <rest/>        <duration>2</duration>        <voice>1</voice>        <type>quarter</type>      </note>    </measure>    <!--=======================================================-->    <measure number="2" width="138">      <note>        <rest/>        <duration>4</duration>        <voice>1</voice>      </note>    </measure>    <!--=======================================================-->    <measure number="3" width="138">      <note default-x="14">        <pitch>          <step>E</step>          <octave>4</octave>        </pitch>        <duration>1</duration>        <voice>1</voice>        <type>eighth</type>        <stem default-y="5">up</stem>      </note>      <note default-x="14">        <chord/>        <pitch>          <step>G</step>          <octave>4</octave>        </pitch>        <duration>1</duration>        <voice>1</voice>        <type>eighth</type>        <stem>up</stem>      </note>      <note default-x="44">        <rest/>        <duration>1</duration>        <voice>1</voice>        <type>eighth</type>      </note>      <note default-x="75">        <rest/>        <duration>1</duration>        <voice>1</voice>        <type>eighth</type>      </note>      <note default-x="106">        <rest/>        <duration>1</duration>        <voice>1</voice>        <type>eighth</type>      </note>    </measure>    <!--=======================================================-->    <measure number="4" width="138">      <note>        <rest/>        <duration>4</duration>        <voice>1</voice>      </note>    </measure>    <!--=======================================================-->    <measure number="5" width="138">      <note default-x="13">        <pitch>          <step>E</step>          <octave>4</octave>        </pitch>        <duration>2</duration>        <voice>1</voice>        <type>quarter</type>        <stem default-y="-4">up</stem>      </note>      <note default-x="75">        <rest/>        <duration>2</duration>        <voice>1</voice>        <type>quarter</type>      </note>    </measure>    <!--=======================================================-->    <measure number="6" width="139">      <note>        <rest/>        <duration>4</duration>        <voice>1</voice>      </note>    </measure>    <!--=======================================================-->    <measure number="7" width="181">      <print new-system="yes">        <staff-layout number="1">          <staff-distance>48</staff-distance>        </staff-layout>      </print>      <note default-x="53">        <pitch>          <step>E</step>          <octave>4</octave>        </pitch>        <duration>2</duration>        <voice>1</voice>        <type>quarter</type>        <stem default-y="-4">up</stem>      </note>      <note default-x="117">        <rest/>        <duration>2</duration>        <voice>1</voice>        <type>quarter</type>      </note>    </measure>    <!--=======================================================-->    <measure number="8" width="142">      <note>        <rest/>        <duration>4</duration>        <voice>1</voice>      </note>    </measure>    <!--=======================================================-->    <measure number="9" width="142">      <note default-x="14">        <pitch>          <step>E</step>          <octave>4</octave>        </pitch>        <duration>2</duration>        <voice>1</voice>        <type>quarter</type>        <stem default-y="5">up</stem>      </note>      <note default-x="14">        <chord/>        <pitch>          <step>G</step>          <octave>4</octave>        </pitch>        <duration>2</duration>        <voice>1</voice>        <type>quarter</type>        <stem>up</stem>      </note>      <note default-x="78">        <rest/>        <duration>2</duration>        <voice>1</voice>        <type>quarter</type>      </note>    </measure>    <!--=======================================================-->    <measure number="10" width="142">      <note>        <rest/>        <duration>4</duration>        <voice>1</voice>      </note>    </measure>    <!--=======================================================-->    <measure number="11" width="142">      <note>        <rest/>        <duration>4</duration>        <voice>1</voice>      </note>    </measure>    <!--=======================================================-->    <measure number="12" width="151">      <note>        <rest/>        <duration>4</duration>        <voice>1</voice>      </note>      <barline location="right">        <bar-style>light-heavy</bar-style>      </barline>    </measure>  </part>  <!--=========================================================-->  <part id="P5">    <measure number="1" width="209">      <print>        <staff-layout number="1">          <staff-distance>86</staff-distance>        </staff-layout>        <measure-numbering>system</measure-numbering>      </print>      <attributes>        <divisions>2</divisions>        <key>          <fifths>0</fifths>          <mode>major</mode>        </key>        <time>          <beats>2</beats>          <beat-type>4</beat-type>        </time>        <clef>          <sign>G</sign>          <line>2</line>        </clef>      </attributes>      <note default-x="84">        <pitch>          <step>F</step>          <octave>5</octave>        </pitch>        <duration>2</duration>        <voice>1</voice>        <type>quarter</type>        <stem default-y="-35">down</stem>      </note>      <note default-x="146">        <pitch>          <step>G</step>          <octave>5</octave>        </pitch>        <duration>2</duration>        <voice>1</voice>        <type>quarter</type>        <stem default-y="-30">down</stem>      </note>    </measure>    <!--=======================================================-->    <measure number="2" width="138">      <note default-x="13">        <pitch>          <step>D</step>          <octave>5</octave>        </pitch>        <duration>2</duration>        <voice>1</voice>        <type>quarter</type>        <stem default-y="-45">down</stem>      </note>      <note default-x="75">        <pitch>          <step>D</step>          <octave>5</octave>        </pitch>        <duration>2</duration>        <voice>1</voice>        <type>quarter</type>        <stem default-y="-45">down</stem>      </note>    </measure>    <!--=======================================================-->    <measure number="3" width="138">      <note default-x="13">        <pitch>          <step>A</step>          <octave>5</octave>        </pitch>        <duration>2</duration>        <voice>1</voice>        <type>quarter</type>        <stem default-y="39">up</stem>      </note>      <note default-x="75">        <pitch>          <step>C</step>          <octave>6</octave>        </pitch>        <duration>2</duration>        <voice>1</voice>        <type>quarter</type>        <stem default-y="49">up</stem>      </note>      <backup>        <duration>4</duration>      </backup>      <note default-x="13">        <pitch>          <step>A</step>          <octave>4</octave>        </pitch>        <duration>2</duration>        <voice>2</voice>        <type>quarter</type>        <stem default-y="-53.5">down</stem>      </note>      <note default-x="13">        <chord/>        <pitch>          <step>C</step>          <octave>5</octave>        </pitch>        <duration>2</duration>        <voice>2</voice>        <type>quarter</type>        <stem>down</stem>      </note>      <note default-x="75">        <pitch>          <step>D</step>          <octave>5</octave>        </pitch>        <duration>2</duration>        <voice>2</voice>        <type>quarter</type>        <stem default-y="-45">down</stem>      </note>    </measure>    <!--=======================================================-->    <measure number="4" width="138">      <note default-x="13">        <pitch>          <step>G</step>          <octave>5</octave>        </pitch>        <duration>2</duration>        <voice>1</voice>        <type>quarter</type>        <stem default-y="34">up</stem>      </note>      <note default-x="75">        <pitch>          <step>D</step>          <octave>5</octave>        </pitch>        <duration>2</duration>        <voice>1</voice>        <type>quarter</type>        <stem default-y="19">up</stem>      </note>      <backup>        <duration>4</duration>      </backup>      <note default-x="13">        <pitch>          <step>A</step>          <octave>4</octave>        </pitch>        <duration>2</duration>        <voice>2</voice>        <type>quarter</type>        <stem default-y="-53.5">down</stem>      </note>      <note default-x="13">        <chord/>        <pitch>          <step>C</step>          <octave>5</octave>        </pitch>        <duration>2</duration>        <voice>2</voice>        <type>quarter</type>        <stem>down</stem>      </note>      <note default-x="75">        <pitch>          <step>D</step>          <octave>5</octave>        </pitch>        <duration>2</duration>        <voice>2</voice>        <type>quarter</type>        <stem default-y="-45">down</stem>      </note>    </measure>    <!--=======================================================-->    <measure number="5" width="138">      <note default-x="13">        <pitch>          <step>A</step>          <octave>5</octave>        </pitch>        <duration>2</duration>        <voice>1</voice>        <type>quarter</type>        <stem default-y="39">up</stem>      </note>      <note default-x="75">        <pitch>          <step>A</step>          <octave>5</octave>        </pitch>        <duration>2</duration>        <voice>1</voice>        <type>quarter</type>        <stem default-y="39">up</stem>      </note>      <backup>        <duration>4</duration>      </backup>      <note default-x="13">        <pitch>          <step>A</step>          <octave>4</octave>        </pitch>        <duration>2</duration>        <voice>2</voice>        <type>quarter</type>        <stem default-y="-53.5">down</stem>      </note>      <note default-x="13">        <chord/>        <pitch>          <step>C</step>          <octave>5</octave>        </pitch>        <duration>2</duration>        <voice>2</voice>        <type>quarter</type>        <stem>down</stem>      </note>      <note default-x="75">        <pitch>          <step>D</step>          <octave>5</octave>        </pitch>        <duration>2</duration>        <voice>2</voice>        <type>quarter</type>        <stem default-y="-45">down</stem>      </note>    </measure>    <!--=======================================================-->    <measure number="6" width="139">      <note default-x="13">        <pitch>          <step>G</step>          <octave>5</octave>        </pitch>        <duration>2</duration>        <voice>1</voice>        <type>quarter</type>        <stem default-y="34">up</stem>      </note>      <note default-x="75">        <pitch>          <step>D</step>          <octave>5</octave>        </pitch>        <duration>2</duration>        <voice>1</voice>        <type>quarter</type>        <stem default-y="19">up</stem>      </note>      <backup>        <duration>4</duration>      </backup>      <note default-x="13">        <pitch>          <step>A</step>          <octave>4</octave>        </pitch>        <duration>2</duration>        <voice>2</voice>        <type>quarter</type>        <stem default-y="-53.5">down</stem>      </note>      <note default-x="13">        <chord/>        <pitch>          <step>C</step>          <octave>5</octave>        </pitch>        <duration>2</duration>        <voice>2</voice>        <type>quarter</type>        <stem>down</stem>      </note>      <note default-x="75">        <pitch>          <step>D</step>          <octave>5</octave>        </pitch>        <duration>2</duration>        <voice>2</voice>        <type>quarter</type>        <stem default-y="-45">down</stem>      </note>    </measure>    <!--=======================================================-->    <measure number="7" width="181">      <print new-system="yes">        <staff-layout number="1">          <staff-distance>86</staff-distance>        </staff-layout>      </print>      <note default-x="53">        <pitch>          <step>A</step>          <octave>5</octave>        </pitch>        <duration>2</duration>        <voice>1</voice>        <type>quarter</type>        <stem default-y="38.5">up</stem>      </note>      <note default-x="116">        <pitch>          <step>A</step>          <octave>5</octave>        </pitch>        <duration>2</duration>        <voice>1</voice>        <type>quarter</type>        <stem default-y="38.5">up</stem>      </note>      <backup>        <duration>4</duration>      </backup>      <note default-x="53">        <pitch>          <step>A</step>          <octave>4</octave>        </pitch>        <duration>2</duration>        <voice>2</voice>        <type>quarter</type>        <stem default-y="-53.5">down</stem>      </note>      <note default-x="53">        <chord/>        <pitch>          <step>C</step>          <octave>5</octave>        </pitch>        <duration>2</duration>        <voice>2</voice>        <type>quarter</type>        <stem>down</stem>      </note>      <note default-x="116">        <pitch>          <step>D</step>          <octave>5</octave>        </pitch>        <duration>2</duration>        <voice>2</voice>        <type>quarter</type>        <stem default-y="-45">down</stem>      </note>    </measure>    <!--=======================================================-->    <measure number="8" width="142">      <note default-x="13">        <pitch>          <step>G</step>          <octave>5</octave>        </pitch>        <duration>2</duration>        <voice>1</voice>        <type>quarter</type>        <stem default-y="34">up</stem>      </note>      <note default-x="77">        <pitch>          <step>D</step>          <octave>5</octave>        </pitch>        <duration>2</duration>        <voice>1</voice>        <type>quarter</type>        <stem default-y="18.5">up</stem>      </note>      <backup>        <duration>4</duration>      </backup>      <note default-x="13">        <pitch>          <step>D</step>          <octave>5</octave>        </pitch>        <duration>2</duration>        <voice>2</voice>        <type>quarter</type>        <stem default-y="-45">down</stem>      </note>      <note default-x="77">        <pitch>          <step>D</step>          <octave>5</octave>        </pitch>        <duration>2</duration>        <voice>2</voice>        <type>quarter</type>        <stem default-y="-45">down</stem>      </note>    </measure>    <!--=======================================================-->    <measure number="9" width="142">      <note default-x="14">        <pitch>          <step>A</step>          <octave>5</octave>        </pitch>        <duration>2</duration>        <voice>1</voice>        <type>quarter</type>        <stem default-y="38.5">up</stem>      </note>      <note default-x="77">        <pitch>          <step>A</step>          <octave>5</octave>        </pitch>        <duration>2</duration>        <voice>1</voice>        <type>quarter</type>        <stem default-y="38.5">up</stem>      </note>      <backup>        <duration>4</duration>      </backup>      <note default-x="14">        <pitch>          <step>A</step>          <octave>4</octave>        </pitch>        <duration>2</duration>        <voice>2</voice>        <type>quarter</type>        <stem default-y="-53.5">down</stem>      </note>      <note default-x="14">        <chord/>        <pitch>          <step>C</step>          <octave>5</octave>        </pitch>        <duration>2</duration>        <voice>2</voice>        <type>quarter</type>        <stem>down</stem>      </note>      <note default-x="77">        <pitch>          <step>A</step>          <octave>4</octave>        </pitch>        <duration>2</duration>        <voice>2</voice>        <type>quarter</type>        <stem default-y="-53.5">down</stem>      </note>      <note default-x="77">        <chord/>        <pitch>          <step>C</step>          <octave>5</octave>        </pitch>        <duration>2</duration>        <voice>2</voice>        <type>quarter</type>        <stem>down</stem>      </note>    </measure>    <!--=======================================================-->    <measure number="10" width="142">      <note default-x="13">        <pitch>          <step>A</step>          <octave>5</octave>        </pitch>        <duration>2</duration>        <voice>1</voice>        <type>quarter</type>        <stem default-y="38.5">up</stem>      </note>      <note default-x="77">        <pitch>          <step>C</step>          <octave>6</octave>        </pitch>        <duration>2</duration>        <voice>1</voice>        <type>quarter</type>        <stem default-y="49">up</stem>      </note>      <backup>        <duration>4</duration>      </backup>      <note default-x="13">        <pitch>          <step>D</step>          <octave>5</octave>        </pitch>        <duration>2</duration>        <voice>2</voice>        <type>quarter</type>        <stem default-y="-45">down</stem>      </note>      <note default-x="77">        <pitch>          <step>D</step>          <octave>5</octave>        </pitch>        <duration>2</duration>        <voice>2</voice>        <type>quarter</type>        <stem default-y="-45">down</stem>      </note>    </measure>    <!--=======================================================-->    <measure number="11" width="142">      <note default-x="13">        <pitch>          <step>A</step>          <octave>5</octave>        </pitch>        <duration>2</duration>        <voice>1</voice>        <type>quarter</type>        <stem default-y="38.5">up</stem>      </note>      <note default-x="77">        <pitch>          <step>G</step>          <octave>5</octave>        </pitch>        <duration>2</duration>        <voice>1</voice>        <type>quarter</type>        <stem default-y="34">up</stem>      </note>      <backup>        <duration>4</duration>      </backup>      <note default-x="13">        <pitch>          <step>A</step>          <octave>4</octave>        </pitch>        <duration>2</duration>        <voice>2</voice>        <type>quarter</type>        <stem default-y="-53.5">down</stem>      </note>      <note default-x="13">        <chord/>        <pitch>          <step>C</step>          <octave>5</octave>        </pitch>        <duration>2</duration>        <voice>2</voice>        <type>quarter</type>        <stem>down</stem>      </note>      <note default-x="77">        <pitch>          <step>A</step>          <octave>4</octave>        </pitch>        <duration>2</duration>        <voice>2</voice>        <type>quarter</type>        <stem default-y="-53.5">down</stem>      </note>      <note default-x="77">        <chord/>        <pitch>          <step>C</step>          <octave>5</octave>        </pitch>        <duration>2</duration>        <voice>2</voice>        <type>quarter</type>        <stem>down</stem>      </note>    </measure>    <!--=======================================================-->    <measure number="12" width="151">      <note default-x="14">        <pitch>          <step>D</step>          <octave>5</octave>        </pitch>        <duration>4</duration>        <voice>1</voice>        <type>half</type>        <stem default-y="18.5">up</stem>      </note>      <backup>        <duration>4</duration>      </backup>      <note default-x="14">        <pitch>          <step>D</step>          <octave>5</octave>        </pitch>        <duration>2</duration>        <voice>2</voice>        <type>quarter</type>        <stem default-y="-45">down</stem>      </note>      <note default-x="77">        <pitch>          <step>A</step>          <octave>4</octave>        </pitch>        <duration>2</duration>        <voice>2</voice>        <type>quarter</type>        <stem default-y="-53.5">down</stem>      </note>      <barline location="right">        <bar-style>light-heavy</bar-style>      </barline>    </measure>  </part>  <!--=========================================================-->  <part id="P6">    <measure number="1" width="209">      <print>        <measure-numbering>system</measure-numbering>      </print>      <attributes>        <divisions>2</divisions>        <key>          <fifths>0</fifths>          <mode>major</mode>        </key>        <time>          <beats>2</beats>          <beat-type>4</beat-type>        </time>        <clef>          <sign>G</sign>          <line>2</line>        </clef>      </attributes>      <note>        <rest/>        <duration>4</duration>        <voice>1</voice>      </note>    </measure>    <!--=======================================================-->    <measure number="2" width="138">      <note>        <rest/>        <duration>4</duration>        <voice>1</voice>      </note>    </measure>    <!--=======================================================-->    <measure number="3" width="138">      <note default-x="13">        <pitch>          <step>F</step>          <octave>4</octave>        </pitch>        <duration>4</duration>        <voice>1</voice>        <type>half</type>        <stem default-y="1">up</stem>      </note>      <backup>        <duration>4</duration>      </backup>      <note default-x="13">        <pitch>          <step>D</step>          <octave>4</octave>        </pitch>        <duration>4</duration>        <voice>2</voice>        <type>half</type>        <stem default-y="-74">down</stem>      </note>    </measure>    <!--=======================================================-->    <measure number="4" width="138">      <note default-x="13">        <pitch>          <step>F</step>          <octave>4</octave>        </pitch>        <duration>4</duration>        <voice>1</voice>        <type>half</type>        <stem default-y="1">up</stem>      </note>      <backup>        <duration>4</duration>      </backup>      <note default-x="13">        <pitch>          <step>D</step>          <octave>4</octave>        </pitch>        <duration>4</duration>        <voice>2</voice>        <type>half</type>        <stem default-y="-74">down</stem>      </note>    </measure>    <!--=======================================================-->    <measure number="5" width="138">      <note default-x="13">        <pitch>          <step>F</step>          <octave>4</octave>        </pitch>        <duration>4</duration>        <voice>1</voice>        <type>half</type>        <stem default-y="1">up</stem>      </note>      <backup>        <duration>4</duration>      </backup>      <note default-x="13">        <pitch>          <step>D</step>          <octave>4</octave>        </pitch>        <duration>4</duration>        <voice>2</voice>        <type>half</type>        <stem default-y="-74">down</stem>      </note>    </measure>    <!--=======================================================-->    <measure number="6" width="139">      <note default-x="13">        <pitch>          <step>F</step>          <octave>4</octave>        </pitch>        <duration>4</duration>        <voice>1</voice>        <type>half</type>        <stem default-y="1">up</stem>      </note>      <backup>        <duration>4</duration>      </backup>      <note default-x="13">        <pitch>          <step>D</step>          <octave>4</octave>        </pitch>        <duration>4</duration>        <voice>2</voice>        <type>half</type>        <stem default-y="-74">down</stem>      </note>    </measure>    <!--=======================================================-->    <measure number="7" width="181">      <print new-system="yes"/>      <note default-x="53">        <pitch>          <step>F</step>          <octave>4</octave>        </pitch>        <duration>4</duration>        <voice>1</voice>        <type>half</type>        <stem default-y="1">up</stem>      </note>      <backup>        <duration>4</duration>      </backup>      <note default-x="53">        <pitch>          <step>D</step>          <octave>4</octave>        </pitch>        <duration>4</duration>        <voice>2</voice>        <type>half</type>        <stem default-y="-74">down</stem>      </note>    </measure>    <!--=======================================================-->    <measure number="8" width="142">      <note default-x="13">        <pitch>          <step>F</step>          <octave>4</octave>        </pitch>        <duration>4</duration>        <voice>1</voice>        <type>half</type>        <stem default-y="1">up</stem>      </note>      <backup>        <duration>4</duration>      </backup>      <note default-x="13">        <pitch>          <step>D</step>          <octave>4</octave>        </pitch>        <duration>4</duration>        <voice>2</voice>        <type>half</type>        <stem default-y="-74">down</stem>      </note>    </measure>    <!--=======================================================-->    <measure number="9" width="142">      <note default-x="14">        <pitch>          <step>F</step>          <octave>4</octave>        </pitch>        <duration>4</duration>        <voice>1</voice>        <type>half</type>        <stem default-y="1">up</stem>      </note>      <backup>        <duration>4</duration>      </backup>      <note default-x="14">        <pitch>          <step>D</step>          <octave>4</octave>        </pitch>        <duration>4</duration>        <voice>2</voice>        <type>half</type>        <stem default-y="-74">down</stem>      </note>    </measure>    <!--=======================================================-->    <measure number="10" width="142">      <note default-x="13">        <pitch>          <step>F</step>          <octave>4</octave>        </pitch>        <duration>4</duration>        <voice>1</voice>        <type>half</type>        <stem default-y="1">up</stem>      </note>      <backup>        <duration>4</duration>      </backup>      <note default-x="13">        <pitch>          <step>D</step>          <octave>4</octave>        </pitch>        <duration>4</duration>        <voice>2</voice>        <type>half</type>        <stem default-y="-74">down</stem>      </note>    </measure>    <!--=======================================================-->    <measure number="11" width="142">      <note default-x="14">        <pitch>          <step>F</step>          <octave>4</octave>        </pitch>        <duration>4</duration>        <voice>1</voice>        <type>half</type>        <stem default-y="1">up</stem>      </note>      <backup>        <duration>4</duration>      </backup>      <note default-x="14">        <pitch>          <step>D</step>          <octave>4</octave>        </pitch>        <duration>4</duration>        <voice>2</voice>        <type>half</type>        <stem default-y="-74">down</stem>      </note>    </measure>    <!--=======================================================-->    <measure number="12" width="151">      <note default-x="14">        <pitch>          <step>D</step>          <octave>4</octave>        </pitch>        <duration>4</duration>        <voice>1</voice>        <type>half</type>        <stem default-y="-9">up</stem>      </note>      <backup>        <duration>4</duration>      </backup>      <note default-x="14">        <pitch>          <step>D</step>          <octave>4</octave>        </pitch>        <duration>4</duration>        <voice>2</voice>        <type>half</type>        <stem default-y="-74">down</stem>      </note>      <barline location="right">        <bar-style>light-heavy</bar-style>      </barline>    </measure>  </part>  <!--=========================================================--></score-partwise>